<?xml version="1.0" encoding="UTF-8" standalone="no"?>
<!DOCTYPE svg PUBLIC "-//W3C//DTD SVG 1.1//EN"
 "http://www.w3.org/Graphics/SVG/1.1/DTD/svg11.dtd">
<!-- Generated by graphviz version 2.28.0 (20110509.1543)
 -->
<!-- Title: _anonymous_0 Pages: 1 -->
<svg width="1353pt" height="864pt"
 viewBox="0.00 0.00 1353.05 864.00" xmlns="http://www.w3.org/2000/svg" xmlns:xlink="http://www.w3.org/1999/xlink">
<g id="graph1" class="graph" transform="scale(0.588797 0.588797) rotate(0) translate(4 1463.4)">
<title>_anonymous_0</title>
<polygon fill="white" stroke="white" points="-4,5 -4,-1463.4 2295,-1463.4 2295,5 -4,5"/>
<text text-anchor="middle" x="1145" y="-140.4" font-family="Times,serif" font-size="14.00">Model:</text>
<text text-anchor="middle" x="1145" y="-123.6" font-family="Times,serif" font-size="14.00">(Unknown)</text>
<text text-anchor="middle" x="1145" y="-90.8" font-family="Times,serif" font-size="14.00">Namespaces:</text>
<text text-anchor="middle" x="1145" y="-74" font-family="Times,serif" font-size="14.00">rdf: http://www.w3.org/1999/02/22&#45;rdf&#45;syntax&#45;ns#</text>
<text text-anchor="middle" x="1145" y="-57.2" font-family="Times,serif" font-size="14.00">rdfs: http://www.w3.org/2000/01/rdf&#45;schema#</text>
<text text-anchor="middle" x="1145" y="-40.4" font-family="Times,serif" font-size="14.00">prov: http://www.w3.org/ns/prov#</text>
<text text-anchor="middle" x="1145" y="-23.6" font-family="Times,serif" font-size="14.00">foaf: http://xmlns.com/foaf/0.1/</text>
<text text-anchor="middle" x="1145" y="-6.8" font-family="Times,serif" font-size="14.00">ex: http://vocab.example.org/</text>
<!-- B_:genid1 -->
<g id="node1" class="node"><title>B_:genid1</title>
<ellipse fill="none" stroke="green" cx="1226" cy="-987.4" rx="27" ry="27"/>
</g>
<!-- Rprov:Association -->
<g id="node3" class="node"><title>Rprov:Association</title>
<ellipse fill="none" stroke="blue" cx="1554" cy="-962.4" rx="108" ry="27"/>
<text text-anchor="middle" x="1554" y="-956.8" font-family="Times,serif" font-size="14.00">prov:Association</text>
</g>
<!-- B_:genid1&#45;&gt;Rprov:Association -->
<g id="edge2" class="edge"><title>B_:genid1&#45;&gt;Rprov:Association</title>
<path fill="none" stroke="gray" d="M1253.13,-985.396C1293.44,-982.305 1373.17,-976.191 1440.28,-971.044"/>
<polygon fill="gray" stroke="gray" points="1440.81,-974.514 1450.51,-970.259 1440.28,-967.534 1440.81,-974.514"/>
<text text-anchor="middle" x="1390" y="-980.2" font-family="Times,serif" font-size="14.00">rdf:type</text>
</g>
<!-- Rex:Remi_Harris -->
<g id="node5" class="node"><title>Rex:Remi_Harris</title>
<ellipse fill="none" stroke="blue" cx="1554" cy="-627.4" rx="108" ry="27"/>
<text text-anchor="middle" x="1554" y="-621.8" font-family="Times,serif" font-size="14.00">ex:Remi_Harris</text>
</g>
<!-- B_:genid1&#45;&gt;Rex:Remi_Harris -->
<g id="edge4" class="edge"><title>B_:genid1&#45;&gt;Rex:Remi_Harris</title>
<path fill="none" stroke="gray" d="M1252.75,-982.44C1275.44,-977.238 1308.72,-967.53 1334,-951.4 1444.2,-881.089 1512.51,-733.276 1539.61,-664.305"/>
<polygon fill="gray" stroke="gray" points="1542.98,-665.309 1543.31,-654.72 1536.45,-662.789 1542.98,-665.309"/>
<text text-anchor="middle" x="1390" y="-936.2" font-family="Times,serif" font-size="14.00">prov:agent</text>
</g>
<!-- Rex:Performer -->
<g id="node7" class="node"><title>Rex:Performer</title>
<ellipse fill="none" stroke="blue" cx="1554" cy="-1088.4" rx="108" ry="27"/>
<text text-anchor="middle" x="1554" y="-1082.8" font-family="Times,serif" font-size="14.00">ex:Performer</text>
</g>
<!-- B_:genid1&#45;&gt;Rex:Performer -->
<g id="edge6" class="edge"><title>B_:genid1&#45;&gt;Rex:Performer</title>
<path fill="none" stroke="gray" d="M1252.04,-995.158C1299.27,-1009.79 1403.26,-1042.01 1475.7,-1064.45"/>
<polygon fill="gray" stroke="gray" points="1474.67,-1067.8 1485.26,-1067.41 1476.74,-1061.11 1474.67,-1067.8"/>
<text text-anchor="middle" x="1390" y="-1050.2" font-family="Times,serif" font-size="14.00">prov:hadRole</text>
</g>
<!-- Rex:Coquette_song -->
<g id="node9" class="node"><title>Rex:Coquette_song</title>
<ellipse fill="none" stroke="blue" cx="1554" cy="-1286.4" rx="108" ry="27"/>
<text text-anchor="middle" x="1554" y="-1280.8" font-family="Times,serif" font-size="14.00">ex:Coquette_song</text>
</g>
<!-- B_:genid1&#45;&gt;Rex:Coquette_song -->
<g id="edge8" class="edge"><title>B_:genid1&#45;&gt;Rex:Coquette_song</title>
<path fill="none" stroke="gray" d="M1246.42,-1005.21C1299.48,-1053.87 1447.54,-1189.67 1516.63,-1253.04"/>
<polygon fill="gray" stroke="gray" points="1514.52,-1255.86 1524.26,-1260.04 1519.25,-1250.7 1514.52,-1255.86"/>
<text text-anchor="middle" x="1390" y="-1167.2" font-family="Times,serif" font-size="14.00">prov:hadPlan</text>
</g>
<!-- Rex:Guitarist -->
<g id="node22" class="node"><title>Rex:Guitarist</title>
<ellipse fill="none" stroke="blue" cx="1876" cy="-435.4" rx="108" ry="27"/>
<text text-anchor="middle" x="1876" y="-429.8" font-family="Times,serif" font-size="14.00">ex:Guitarist</text>
</g>
<!-- Rex:Remi_Harris&#45;&gt;Rex:Guitarist -->
<g id="edge22" class="edge"><title>Rex:Remi_Harris&#45;&gt;Rex:Guitarist</title>
<path fill="none" stroke="gray" d="M1637.94,-610.372C1647.09,-605.536 1655.45,-599.339 1662,-591.4 1700.45,-544.764 1636.74,-498.814 1680,-456.6 1703.69,-433.484 1737.5,-424.865 1770.33,-423.066"/>
<polygon fill="gray" stroke="gray" points="1770.6,-426.559 1780.47,-422.719 1770.36,-419.563 1770.6,-426.559"/>
<text text-anchor="middle" x="1715" y="-460.2" font-family="Times,serif" font-size="14.00">rdf:type</text>
</g>
<!-- Rprov:Person -->
<g id="node24" class="node"><title>Rprov:Person</title>
<ellipse fill="none" stroke="blue" cx="1876" cy="-797.4" rx="108" ry="27"/>
<text text-anchor="middle" x="1876" y="-791.8" font-family="Times,serif" font-size="14.00">prov:Person</text>
</g>
<!-- Rex:Remi_Harris&#45;&gt;Rprov:Person -->
<g id="edge24" class="edge"><title>Rex:Remi_Harris&#45;&gt;Rprov:Person</title>
<path fill="none" stroke="gray" d="M1563.64,-654.506C1579.07,-697.771 1615.92,-781.053 1680,-815.4 1717.68,-835.598 1765.4,-831.607 1804.2,-822.319"/>
<polygon fill="gray" stroke="gray" points="1805.56,-825.585 1814.38,-819.716 1803.82,-818.804 1805.56,-825.585"/>
<text text-anchor="middle" x="1715" y="-833.2" font-family="Times,serif" font-size="14.00">rdf:type</text>
</g>
<!-- Rprov:Agent -->
<g id="node26" class="node"><title>Rprov:Agent</title>
<ellipse fill="none" stroke="blue" cx="1876" cy="-725.4" rx="108" ry="27"/>
<text text-anchor="middle" x="1876" y="-719.8" font-family="Times,serif" font-size="14.00">prov:Agent</text>
</g>
<!-- Rex:Remi_Harris&#45;&gt;Rprov:Agent -->
<g id="edge26" class="edge"><title>Rex:Remi_Harris&#45;&gt;Rprov:Agent</title>
<path fill="none" stroke="gray" d="M1593.1,-652.636C1617.08,-667.355 1649.22,-685.013 1680,-695.4 1706.45,-704.324 1735.82,-710.607 1763.57,-715.025"/>
<polygon fill="gray" stroke="gray" points="1763.3,-718.525 1773.71,-716.57 1764.35,-711.604 1763.3,-718.525"/>
<text text-anchor="middle" x="1715" y="-716.2" font-family="Times,serif" font-size="14.00">rdf:type</text>
</g>
<!-- Rfoaf:Person -->
<g id="node28" class="node"><title>Rfoaf:Person</title>
<ellipse fill="none" stroke="blue" cx="1876" cy="-653.4" rx="108" ry="27"/>
<text text-anchor="middle" x="1876" y="-647.8" font-family="Times,serif" font-size="14.00">foaf:Person</text>
</g>
<!-- Rex:Remi_Harris&#45;&gt;Rfoaf:Person -->
<g id="edge28" class="edge"><title>Rex:Remi_Harris&#45;&gt;Rfoaf:Person</title>
<path fill="none" stroke="gray" d="M1627.89,-607.691C1644.86,-603.915 1662.96,-600.537 1680,-598.6 1710.91,-595.085 1721.39,-586.383 1750,-598.6 1760.64,-603.143 1758.24,-611.198 1768,-617.4 1775.39,-622.095 1783.46,-626.248 1791.75,-629.905"/>
<polygon fill="gray" stroke="gray" points="1790.6,-633.217 1801.18,-633.826 1793.29,-626.754 1790.6,-633.217"/>
<text text-anchor="middle" x="1715" y="-602.2" font-family="Times,serif" font-size="14.00">rdf:type</text>
</g>
<!-- LRemi Harris -->
<g id="node30" class="node"><title>LRemi Harris</title>
<polygon fill="none" stroke="black" points="1768,-481.4 1768,-535.4 1984,-535.4 1984,-481.4 1768,-481.4"/>
<text text-anchor="middle" x="1876" y="-502.9" font-family="Times,serif" font-size="14.00">Remi Harris</text>
</g>
<!-- Rex:Remi_Harris&#45;&gt;LRemi Harris -->
<g id="edge30" class="edge"><title>Rex:Remi_Harris&#45;&gt;LRemi Harris</title>
<path fill="none" stroke="gray" d="M1637.67,-610.147C1646.87,-605.348 1655.31,-599.221 1662,-591.4 1693,-555.146 1643.55,-516.369 1680,-485.6 1692.68,-474.893 1723.93,-475.632 1757.79,-480.658"/>
<polygon fill="gray" stroke="gray" points="1757.46,-484.148 1767.88,-482.265 1758.56,-477.235 1757.46,-484.148"/>
<text text-anchor="middle" x="1715" y="-489.2" font-family="Times,serif" font-size="14.00">foaf:name</text>
</g>
<!-- Rhttp://www.remiharris.co.uk -->
<g id="node32" class="node"><title>Rhttp://www.remiharris.co.uk</title>
<ellipse fill="none" stroke="blue" cx="1876" cy="-581.4" rx="108" ry="27"/>
<text text-anchor="middle" x="1876" y="-575.8" font-family="Times,serif" font-size="14.00">http://www.remiharris.co.uk</text>
</g>
<!-- Rex:Remi_Harris&#45;&gt;Rhttp://www.remiharris.co.uk -->
<g id="edge32" class="edge"><title>Rex:Remi_Harris&#45;&gt;Rhttp://www.remiharris.co.uk</title>
<path fill="none" stroke="gray" d="M1636.6,-609.938C1646.09,-605.174 1654.9,-599.113 1662,-591.4 1684.58,-566.884 1653.76,-539.146 1680,-518.6 1704.5,-499.422 1722.42,-504.211 1750,-518.6 1762.4,-525.067 1756.85,-535.969 1768,-544.4 1774.89,-549.61 1782.57,-554.122 1790.57,-558.021"/>
<polygon fill="gray" stroke="gray" points="1789.15,-561.221 1799.7,-562.169 1792.04,-554.848 1789.15,-561.221"/>
<text text-anchor="middle" x="1715" y="-522.2" font-family="Times,serif" font-size="14.00">rdfs:seeAlso</text>
</g>
<!-- Rprov:Role -->
<g id="node89" class="node"><title>Rprov:Role</title>
<ellipse fill="none" stroke="blue" cx="2182" cy="-734.4" rx="108" ry="27"/>
<text text-anchor="middle" x="2182" y="-728.8" font-family="Times,serif" font-size="14.00">prov:Role</text>
</g>
<!-- Rex:Performer&#45;&gt;Rprov:Role -->
<g id="edge102" class="edge"><title>Rex:Performer&#45;&gt;Rprov:Role</title>
<path fill="none" stroke="gray" d="M1633.03,-1106.89C1741.36,-1130.6 1930.11,-1164.18 1984,-1124.4 1997.66,-1114.32 2064.92,-846.745 2074,-832.4 2090.24,-806.729 2114.93,-783.497 2136.49,-766.102"/>
<polygon fill="gray" stroke="gray" points="2138.89,-768.667 2144.58,-759.729 2134.56,-763.168 2138.89,-768.667"/>
<text text-anchor="middle" x="1876" y="-1146.2" font-family="Times,serif" font-size="14.00">rdf:type</text>
</g>
<!-- LPlayer in a music performance -->
<g id="node91" class="node"><title>LPlayer in a music performance</title>
<polygon fill="none" stroke="black" points="1768,-1061.4 1768,-1115.4 1984,-1115.4 1984,-1061.4 1768,-1061.4"/>
<text text-anchor="middle" x="1876" y="-1082.9" font-family="Times,serif" font-size="14.00">Player in a music performance</text>
</g>
<!-- Rex:Performer&#45;&gt;LPlayer in a music performance -->
<g id="edge104" class="edge"><title>Rex:Performer&#45;&gt;LPlayer in a music performance</title>
<path fill="none" stroke="gray" d="M1662,-1088.4C1692.74,-1088.4 1726.42,-1088.4 1757.75,-1088.4"/>
<polygon fill="gray" stroke="gray" points="1757.83,-1091.9 1767.83,-1088.4 1757.83,-1084.9 1757.83,-1091.9"/>
<text text-anchor="middle" x="1715" y="-1091.2" font-family="Times,serif" font-size="14.00">rdfs:label</text>
</g>
<!-- Rprov:Plan -->
<g id="node34" class="node"><title>Rprov:Plan</title>
<ellipse fill="none" stroke="blue" cx="1876" cy="-1432.4" rx="108" ry="27"/>
<text text-anchor="middle" x="1876" y="-1426.8" font-family="Times,serif" font-size="14.00">prov:Plan</text>
</g>
<!-- Rex:Coquette_song&#45;&gt;Rprov:Plan -->
<g id="edge34" class="edge"><title>Rex:Coquette_song&#45;&gt;Rprov:Plan</title>
<path fill="none" stroke="gray" d="M1598.6,-1311C1641.06,-1334.4 1707.81,-1369.74 1768,-1395.4 1777.97,-1399.65 1788.6,-1403.78 1799.16,-1407.66"/>
<polygon fill="gray" stroke="gray" points="1798.21,-1411.04 1808.81,-1411.13 1800.59,-1404.45 1798.21,-1411.04"/>
<text text-anchor="middle" x="1715" y="-1387.2" font-family="Times,serif" font-size="14.00">rdf:type</text>
</g>
<!-- Rprov:Entity -->
<g id="node36" class="node"><title>Rprov:Entity</title>
<ellipse fill="none" stroke="blue" cx="1876" cy="-1214.4" rx="108" ry="27"/>
<text text-anchor="middle" x="1876" y="-1208.8" font-family="Times,serif" font-size="14.00">prov:Entity</text>
</g>
<!-- Rex:Coquette_song&#45;&gt;Rprov:Entity -->
<g id="edge36" class="edge"><title>Rex:Coquette_song&#45;&gt;Rprov:Entity</title>
<path fill="none" stroke="gray" d="M1634.92,-1268.42C1680.64,-1258.13 1738.1,-1245.2 1785.34,-1234.57"/>
<polygon fill="gray" stroke="gray" points="1786.28,-1237.95 1795.26,-1232.34 1784.74,-1231.12 1786.28,-1237.95"/>
<text text-anchor="middle" x="1715" y="-1259.2" font-family="Times,serif" font-size="14.00">rdf:type</text>
</g>
<!-- LCoquette -->
<g id="node38" class="node"><title>LCoquette</title>
<polygon fill="none" stroke="black" points="1768,-1332.4 1768,-1386.4 1984,-1386.4 1984,-1332.4 1768,-1332.4"/>
<text text-anchor="middle" x="1876" y="-1353.9" font-family="Times,serif" font-size="14.00">Coquette</text>
</g>
<!-- Rex:Coquette_song&#45;&gt;LCoquette -->
<g id="edge38" class="edge"><title>Rex:Coquette_song&#45;&gt;LCoquette</title>
<path fill="none" stroke="gray" d="M1634.51,-1304.54C1671.78,-1313.04 1716.93,-1323.34 1758,-1332.71"/>
<polygon fill="gray" stroke="gray" points="1757.27,-1336.13 1767.79,-1334.94 1758.82,-1329.31 1757.27,-1336.13"/>
<text text-anchor="middle" x="1715" y="-1332.2" font-family="Times,serif" font-size="14.00">rdfs:label</text>
</g>
<!-- Rhttps://en.wikipedia.org/wiki/Coquette_(song) -->
<g id="node40" class="node"><title>Rhttps://en.wikipedia.org/wiki/Coquette_(song)</title>
<ellipse fill="none" stroke="blue" cx="1876" cy="-1286.4" rx="108" ry="27"/>
<text text-anchor="middle" x="1876" y="-1280.8" font-family="Times,serif" font-size="14.00">https://en.wikipedia.org/wiki/Coquette_(song)</text>
</g>
<!-- Rex:Coquette_song&#45;&gt;Rhttps://en.wikipedia.org/wiki/Coquette_(song) -->
<g id="edge40" class="edge"><title>Rex:Coquette_song&#45;&gt;Rhttps://en.wikipedia.org/wiki/Coquette_(song)</title>
<path fill="none" stroke="gray" d="M1662,-1286.4C1692.74,-1286.4 1726.42,-1286.4 1757.75,-1286.4"/>
<polygon fill="gray" stroke="gray" points="1757.83,-1289.9 1767.83,-1286.4 1757.83,-1282.9 1757.83,-1289.9"/>
<text text-anchor="middle" x="1715" y="-1289.2" font-family="Times,serif" font-size="14.00">rdfs:seeAlso</text>
</g>
<!-- Rex:Coquette_performance -->
<g id="node10" class="node"><title>Rex:Coquette_performance</title>
<ellipse fill="none" stroke="blue" cx="108" cy="-582.4" rx="108" ry="27"/>
<text text-anchor="middle" x="108" y="-576.8" font-family="Times,serif" font-size="14.00">ex:Coquette_performance</text>
</g>
<!-- Rex:Coquette_performance&#45;&gt;B_:genid1 -->
<g id="edge18" class="edge"><title>Rex:Coquette_performance&#45;&gt;B_:genid1</title>
<path fill="none" stroke="gray" d="M162.607,-605.879C295.112,-663.381 649.404,-813.883 954,-914.4 1037.29,-941.885 1137.43,-966.809 1189.55,-979.186"/>
<polygon fill="gray" stroke="gray" points="1188.78,-982.6 1199.31,-981.491 1190.39,-975.787 1188.78,-982.6"/>
<text text-anchor="middle" x="629" y="-828.2" font-family="Times,serif" font-size="14.00">prov:qualifiedAsscoiation</text>
</g>
<!-- Rex:Coquette_performance&#45;&gt;Rex:Remi_Harris -->
<g id="edge16" class="edge"><title>Rex:Coquette_performance&#45;&gt;Rex:Remi_Harris</title>
<path fill="none" stroke="gray" d="M203.674,-595.048C267.269,-602.469 353.016,-610.4 429,-610.4 429,-610.4 429,-610.4 1227,-610.4 1298,-610.4 1377.58,-614.471 1440.34,-618.629"/>
<polygon fill="gray" stroke="gray" points="1440.45,-622.144 1450.66,-619.323 1440.92,-615.16 1440.45,-622.144"/>
<text text-anchor="middle" x="828" y="-613.2" font-family="Times,serif" font-size="14.00">prov:wasAssociatedWith</text>
</g>
<!-- Rex:Performance -->
<g id="node12" class="node"><title>Rex:Performance</title>
<ellipse fill="none" stroke="blue" cx="430" cy="-555.4" rx="108" ry="27"/>
<text text-anchor="middle" x="430" y="-549.8" font-family="Times,serif" font-size="14.00">ex:Performance</text>
</g>
<!-- Rex:Coquette_performance&#45;&gt;Rex:Performance -->
<g id="edge10" class="edge"><title>Rex:Coquette_performance&#45;&gt;Rex:Performance</title>
<path fill="none" stroke="gray" d="M210.69,-573.82C244.586,-570.96 282.527,-567.759 317.151,-564.837"/>
<polygon fill="gray" stroke="gray" points="317.63,-568.309 327.3,-563.981 317.042,-561.334 317.63,-568.309"/>
<text text-anchor="middle" x="269" y="-574.2" font-family="Times,serif" font-size="14.00">rdf:type</text>
</g>
<!-- Rprov:Activity -->
<g id="node14" class="node"><title>Rprov:Activity</title>
<ellipse fill="none" stroke="blue" cx="1226" cy="-483.4" rx="108" ry="27"/>
<text text-anchor="middle" x="1226" y="-477.8" font-family="Times,serif" font-size="14.00">prov:Activity</text>
</g>
<!-- Rex:Coquette_performance&#45;&gt;Rprov:Activity -->
<g id="edge12" class="edge"><title>Rex:Coquette_performance&#45;&gt;Rprov:Activity</title>
<path fill="none" stroke="gray" d="M169.579,-560.112C211.702,-545.703 269.495,-528.073 322,-519.4 601.644,-473.206 936.282,-474.28 1109.04,-478.915"/>
<polygon fill="gray" stroke="gray" points="1109.08,-482.417 1119.17,-479.196 1109.28,-475.42 1109.08,-482.417"/>
<text text-anchor="middle" x="629" y="-494.2" font-family="Times,serif" font-size="14.00">rdf:type</text>
</g>
<!-- Rex:Carolan_Guitar -->
<g id="node16" class="node"><title>Rex:Carolan_Guitar</title>
<ellipse fill="none" stroke="blue" cx="430" cy="-1011.4" rx="108" ry="27"/>
<text text-anchor="middle" x="430" y="-1005.8" font-family="Times,serif" font-size="14.00">ex:Carolan_Guitar</text>
</g>
<!-- Rex:Coquette_performance&#45;&gt;Rex:Carolan_Guitar -->
<g id="edge14" class="edge"><title>Rex:Coquette_performance&#45;&gt;Rex:Carolan_Guitar</title>
<path fill="none" stroke="gray" d="M110.482,-609.869C115.57,-676.786 137.837,-849.743 234,-945.4 258.792,-970.062 293.118,-985.513 326.068,-995.192"/>
<polygon fill="gray" stroke="gray" points="325.203,-998.584 335.775,-997.893 327.079,-991.84 325.203,-998.584"/>
<text text-anchor="middle" x="269" y="-989.2" font-family="Times,serif" font-size="14.00">prov:Used</text>
</g>
<!-- Rhttp://carolanguitar.com/2014/11/10/31&#45;coquette/ -->
<g id="node20" class="node"><title>Rhttp://carolanguitar.com/2014/11/10/31&#45;coquette/</title>
<ellipse fill="none" stroke="blue" cx="430" cy="-445.4" rx="108" ry="27"/>
<text text-anchor="middle" x="430" y="-439.8" font-family="Times,serif" font-size="14.00">http://carolanguitar.com/2014/11/10/31&#45;coquette/</text>
</g>
<!-- Rex:Coquette_performance&#45;&gt;Rhttp://carolanguitar.com/2014/11/10/31&#45;coquette/ -->
<g id="edge20" class="edge"><title>Rex:Coquette_performance&#45;&gt;Rhttp://carolanguitar.com/2014/11/10/31&#45;coquette/</title>
<path fill="none" stroke="gray" d="M129.764,-555.907C152.316,-529.23 190.933,-489.289 234,-469.6 258.072,-458.595 285.464,-452.038 311.954,-448.243"/>
<polygon fill="gray" stroke="gray" points="312.592,-451.69 322.053,-446.921 311.683,-444.749 312.592,-451.69"/>
<text text-anchor="middle" x="269" y="-473.2" font-family="Times,serif" font-size="14.00">rdfs:seeAlso</text>
</g>
<!-- Rex:Carolan_Guitar&#45;&gt;Rprov:Entity -->
<g id="edge44" class="edge"><title>Rex:Carolan_Guitar&#45;&gt;Rprov:Entity</title>
<path fill="none" stroke="gray" d="M462.065,-1037.37C526.004,-1088.09 678.793,-1195.4 827,-1195.4 827,-1195.4 827,-1195.4 1555,-1195.4 1624.59,-1195.4 1702.54,-1199.93 1764.08,-1204.57"/>
<polygon fill="gray" stroke="gray" points="1763.97,-1208.07 1774.2,-1205.35 1764.5,-1201.09 1763.97,-1208.07"/>
<text text-anchor="middle" x="1226" y="-1198.2" font-family="Times,serif" font-size="14.00">rdf:type</text>
</g>
<!-- Rex:Musical_instrument -->
<g id="node42" class="node"><title>Rex:Musical_instrument</title>
<ellipse fill="none" stroke="blue" cx="828" cy="-1083.4" rx="108" ry="27"/>
<text text-anchor="middle" x="828" y="-1077.8" font-family="Times,serif" font-size="14.00">ex:Musical_instrument</text>
</g>
<!-- Rex:Carolan_Guitar&#45;&gt;Rex:Musical_instrument -->
<g id="edge42" class="edge"><title>Rex:Carolan_Guitar&#45;&gt;Rex:Musical_instrument</title>
<path fill="none" stroke="gray" d="M517.904,-1027.2C580.576,-1038.6 665.206,-1053.98 730.065,-1065.78"/>
<polygon fill="gray" stroke="gray" points="729.834,-1069.29 740.299,-1067.64 731.086,-1062.4 729.834,-1069.29"/>
<text text-anchor="middle" x="629" y="-1063.2" font-family="Times,serif" font-size="14.00">rdf:type</text>
</g>
<!-- Rex:Carolan_Guitar_production -->
<g id="node45" class="node"><title>Rex:Carolan_Guitar_production</title>
<ellipse fill="none" stroke="blue" cx="828" cy="-750.4" rx="108" ry="27"/>
<text text-anchor="middle" x="828" y="-744.8" font-family="Times,serif" font-size="14.00">ex:Carolan_Guitar_production</text>
</g>
<!-- Rex:Carolan_Guitar&#45;&gt;Rex:Carolan_Guitar_production -->
<g id="edge46" class="edge"><title>Rex:Carolan_Guitar&#45;&gt;Rex:Carolan_Guitar_production</title>
<path fill="none" stroke="gray" d="M516.787,-995.189C590.31,-980.738 686.726,-960.245 702,-949.4 759.491,-908.58 796.326,-832.183 814.194,-786.847"/>
<polygon fill="gray" stroke="gray" points="817.506,-787.985 817.821,-777.395 810.971,-785.477 817.506,-787.985"/>
<text text-anchor="middle" x="629" y="-990.2" font-family="Times,serif" font-size="14.00">prov:wasGeneratedBy</text>
</g>
<!-- Rhttp://carolanguitar.com -->
<g id="node47" class="node"><title>Rhttp://carolanguitar.com</title>
<ellipse fill="none" stroke="blue" cx="828" cy="-1011.4" rx="108" ry="27"/>
<text text-anchor="middle" x="828" y="-1005.8" font-family="Times,serif" font-size="14.00">http://carolanguitar.com</text>
</g>
<!-- Rex:Carolan_Guitar&#45;&gt;Rhttp://carolanguitar.com -->
<g id="edge48" class="edge"><title>Rex:Carolan_Guitar&#45;&gt;Rhttp://carolanguitar.com</title>
<path fill="none" stroke="gray" d="M538.163,-1011.4C591.21,-1011.4 655.362,-1011.4 709.72,-1011.4"/>
<polygon fill="gray" stroke="gray" points="709.751,-1014.9 719.751,-1011.4 709.751,-1007.9 709.751,-1014.9"/>
<text text-anchor="middle" x="629" y="-1014.2" font-family="Times,serif" font-size="14.00">rdfs:seeAlso</text>
</g>
<!-- Rex:Guitarist&#45;&gt;Rprov:Role -->
<g id="edge118" class="edge"><title>Rex:Guitarist&#45;&gt;Rprov:Role</title>
<path fill="none" stroke="gray" d="M1959.24,-452.661C1968.57,-457.457 1977.16,-463.582 1984,-471.4 2011.72,-503.087 1981.77,-527.477 2002,-564.4 2033.88,-622.597 2092.68,-672.584 2134.17,-703.003"/>
<polygon fill="gray" stroke="gray" points="2132.33,-705.99 2142.48,-709.007 2136.43,-700.315 2132.33,-705.99"/>
<text text-anchor="middle" x="2029" y="-637.2" font-family="Times,serif" font-size="14.00">rdf:type</text>
</g>
<!-- Rrdfs:Class -->
<g id="node94" class="node"><title>Rrdfs:Class</title>
<ellipse fill="none" stroke="blue" cx="2182" cy="-480.4" rx="108" ry="27"/>
<text text-anchor="middle" x="2182" y="-474.8" font-family="Times,serif" font-size="14.00">rdfs:Class</text>
</g>
<!-- Rex:Guitarist&#45;&gt;Rrdfs:Class -->
<g id="edge120" class="edge"><title>Rex:Guitarist&#45;&gt;Rrdfs:Class</title>
<path fill="none" stroke="gray" d="M1969.45,-449.085C2003.87,-454.18 2043.13,-459.992 2078.41,-465.214"/>
<polygon fill="gray" stroke="gray" points="2078.33,-468.739 2088.73,-466.742 2079.35,-461.815 2078.33,-468.739"/>
<text text-anchor="middle" x="2029" y="-464.2" font-family="Times,serif" font-size="14.00">rdf:type</text>
</g>
<!-- LGuitarist -->
<g id="node104" class="node"><title>LGuitarist</title>
<polygon fill="none" stroke="black" points="2074,-380.4 2074,-434.4 2290,-434.4 2290,-380.4 2074,-380.4"/>
<text text-anchor="middle" x="2182" y="-401.9" font-family="Times,serif" font-size="14.00">Guitarist</text>
</g>
<!-- Rex:Guitarist&#45;&gt;LGuitarist -->
<g id="edge122" class="edge"><title>Rex:Guitarist&#45;&gt;LGuitarist</title>
<path fill="none" stroke="gray" d="M1977.81,-426.115C2005.4,-423.573 2035.55,-420.797 2063.97,-418.179"/>
<polygon fill="gray" stroke="gray" points="2064.31,-421.663 2073.94,-417.26 2063.67,-414.692 2064.31,-421.663"/>
<text text-anchor="middle" x="2029" y="-426.2" font-family="Times,serif" font-size="14.00">rdfs:label</text>
</g>
<!-- Rex:Carolan_Guitar_production&#45;&gt;Rprov:Activity -->
<g id="edge60" class="edge"><title>Rex:Carolan_Guitar_production&#45;&gt;Rprov:Activity</title>
<path fill="none" stroke="gray" d="M859.402,-724.375C883.723,-701.902 916.824,-667.305 936,-630.4 952.164,-599.291 929.5,-578.676 954,-553.6 957.364,-550.157 1060.41,-524.076 1138.44,-504.704"/>
<polygon fill="gray" stroke="gray" points="1139.44,-508.061 1148.3,-502.257 1137.75,-501.267 1139.44,-508.061"/>
<text text-anchor="middle" x="1027" y="-557.2" font-family="Times,serif" font-size="14.00">rdf:type</text>
</g>
<!-- B_:genid2 -->
<g id="node48" class="node"><title>B_:genid2</title>
<ellipse fill="none" stroke="green" cx="1226" cy="-555.4" rx="27" ry="27"/>
</g>
<!-- Rex:Carolan_Guitar_production&#45;&gt;B_:genid2 -->
<g id="edge72" class="edge"><title>Rex:Carolan_Guitar_production&#45;&gt;B_:genid2</title>
<path fill="none" stroke="gray" d="M848.501,-723.817C870.838,-695.288 910.065,-650.699 954,-625.6 1030.55,-581.866 1134.69,-564.863 1188.88,-558.668"/>
<polygon fill="gray" stroke="gray" points="1189.47,-562.125 1199.03,-557.568 1188.71,-555.166 1189.47,-562.125"/>
<text text-anchor="middle" x="1027" y="-629.2" font-family="Times,serif" font-size="14.00">prov:qualifiedAsscoiation</text>
</g>
<!-- Rex:Nick_Perez -->
<g id="node51" class="node"><title>Rex:Nick_Perez</title>
<ellipse fill="none" stroke="blue" cx="1554" cy="-555.4" rx="108" ry="27"/>
<text text-anchor="middle" x="1554" y="-549.8" font-family="Times,serif" font-size="14.00">ex:Nick_Perez</text>
</g>
<!-- Rex:Carolan_Guitar_production&#45;&gt;Rex:Nick_Perez -->
<g id="edge62" class="edge"><title>Rex:Carolan_Guitar_production&#45;&gt;Rex:Nick_Perez</title>
<path fill="none" stroke="gray" d="M897.115,-729.634C955.55,-712.006 1042.09,-686.345 1118,-665.6 1238.12,-632.774 1377.82,-597.978 1465.83,-576.47"/>
<polygon fill="gray" stroke="gray" points="1466.88,-579.815 1475.77,-574.043 1465.22,-573.015 1466.88,-579.815"/>
<text text-anchor="middle" x="1226" y="-669.2" font-family="Times,serif" font-size="14.00">prov:wasAssociatedWith</text>
</g>
<!-- Rex:Steve_Benford -->
<g id="node61" class="node"><title>Rex:Steve_Benford</title>
<ellipse fill="none" stroke="blue" cx="1554" cy="-887.4" rx="108" ry="27"/>
<text text-anchor="middle" x="1554" y="-881.8" font-family="Times,serif" font-size="14.00">ex:Steve_Benford</text>
</g>
<!-- Rex:Carolan_Guitar_production&#45;&gt;Rex:Steve_Benford -->
<g id="edge64" class="edge"><title>Rex:Carolan_Guitar_production&#45;&gt;Rex:Steve_Benford</title>
<path fill="none" stroke="gray" d="M930.982,-758.61C938.771,-759.222 946.511,-759.824 954,-760.4 1164.62,-776.601 1229.86,-722.155 1428,-795.4 1462.51,-808.159 1495.78,-833.486 1519.3,-854.341"/>
<polygon fill="gray" stroke="gray" points="1517.13,-857.098 1526.89,-861.217 1521.83,-851.91 1517.13,-857.098"/>
<text text-anchor="middle" x="1226" y="-770.2" font-family="Times,serif" font-size="14.00">prov:wasAssociatedWith</text>
</g>
<!-- Rex:Reclaimed_Mahogany_pece -->
<g id="node63" class="node"><title>Rex:Reclaimed_Mahogany_pece</title>
<ellipse fill="none" stroke="blue" cx="1226" cy="-718.4" rx="108" ry="27"/>
<text text-anchor="middle" x="1226" y="-712.8" font-family="Times,serif" font-size="14.00">ex:Reclaimed_Mahogany_pece</text>
</g>
<!-- Rex:Carolan_Guitar_production&#45;&gt;Rex:Reclaimed_Mahogany_pece -->
<g id="edge66" class="edge"><title>Rex:Carolan_Guitar_production&#45;&gt;Rex:Reclaimed_Mahogany_pece</title>
<path fill="none" stroke="gray" d="M930.98,-742.159C986.647,-737.661 1055.68,-732.083 1112.86,-727.462"/>
<polygon fill="gray" stroke="gray" points="1113.34,-730.935 1123.02,-726.641 1112.77,-723.958 1113.34,-730.935"/>
<text text-anchor="middle" x="1027" y="-743.2" font-family="Times,serif" font-size="14.00">prov:used</text>
</g>
<!-- Rex:Flamed_Maple_piece -->
<g id="node65" class="node"><title>Rex:Flamed_Maple_piece</title>
<ellipse fill="none" stroke="blue" cx="1226" cy="-915.4" rx="108" ry="27"/>
<text text-anchor="middle" x="1226" y="-909.8" font-family="Times,serif" font-size="14.00">ex:Flamed_Maple_piece</text>
</g>
<!-- Rex:Carolan_Guitar_production&#45;&gt;Rex:Flamed_Maple_piece -->
<g id="edge68" class="edge"><title>Rex:Carolan_Guitar_production&#45;&gt;Rex:Flamed_Maple_piece</title>
<path fill="none" stroke="gray" d="M856.622,-776.602C880.616,-798.017 917.208,-827.567 954,-845.4 1007.4,-871.284 1071.53,-888.403 1124,-899.228"/>
<polygon fill="gray" stroke="gray" points="1123.49,-902.698 1133.99,-901.244 1124.88,-895.836 1123.49,-902.698"/>
<text text-anchor="middle" x="1027" y="-897.2" font-family="Times,serif" font-size="14.00">prov:used</text>
</g>
<!-- Rex:Spruce_piece -->
<g id="node67" class="node"><title>Rex:Spruce_piece</title>
<ellipse fill="none" stroke="blue" cx="1226" cy="-843.4" rx="108" ry="27"/>
<text text-anchor="middle" x="1226" y="-837.8" font-family="Times,serif" font-size="14.00">ex:Spruce_piece</text>
</g>
<!-- Rex:Carolan_Guitar_production&#45;&gt;Rex:Spruce_piece -->
<g id="edge70" class="edge"><title>Rex:Carolan_Guitar_production&#45;&gt;Rex:Spruce_piece</title>
<path fill="none" stroke="gray" d="M885.914,-773.201C907.045,-781.05 931.379,-789.372 954,-795.4 1008.21,-809.847 1069.71,-821.139 1120.4,-829.132"/>
<polygon fill="gray" stroke="gray" points="1119.97,-832.607 1130.39,-830.686 1121.05,-825.69 1119.97,-832.607"/>
<text text-anchor="middle" x="1027" y="-828.2" font-family="Times,serif" font-size="14.00">prov:used</text>
</g>
<!-- B_:genid2&#45;&gt;Rprov:Association -->
<g id="edge50" class="edge"><title>B_:genid2&#45;&gt;Rprov:Association</title>
<path fill="none" stroke="gray" d="M1250.21,-567.736C1273.95,-581.348 1310.57,-605.238 1334,-634.4 1398.35,-714.498 1395.38,-748.171 1428,-845.6 1439.27,-879.255 1422.48,-896.819 1446,-923.4 1451.44,-929.543 1457.92,-934.719 1464.97,-939.081"/>
<polygon fill="gray" stroke="gray" points="1463.72,-942.391 1474.16,-944.181 1467.12,-936.27 1463.72,-942.391"/>
<text text-anchor="middle" x="1390" y="-849.2" font-family="Times,serif" font-size="14.00">rdf:type</text>
</g>
<!-- B_:genid2&#45;&gt;Rex:Nick_Perez -->
<g id="edge52" class="edge"><title>B_:genid2&#45;&gt;Rex:Nick_Perez</title>
<path fill="none" stroke="gray" d="M1253.13,-555.4C1292.5,-555.4 1369.49,-555.4 1435.6,-555.4"/>
<polygon fill="gray" stroke="gray" points="1435.69,-558.9 1445.69,-555.4 1435.69,-551.9 1435.69,-558.9"/>
<text text-anchor="middle" x="1390" y="-558.2" font-family="Times,serif" font-size="14.00">prov:agent</text>
</g>
<!-- Rex:Luthier -->
<g id="node53" class="node"><title>Rex:Luthier</title>
<ellipse fill="none" stroke="blue" cx="1876" cy="-217.4" rx="108" ry="27"/>
<text text-anchor="middle" x="1876" y="-211.8" font-family="Times,serif" font-size="14.00">ex:Luthier</text>
</g>
<!-- B_:genid2&#45;&gt;Rex:Luthier -->
<g id="edge54" class="edge"><title>B_:genid2&#45;&gt;Rex:Luthier</title>
<path fill="none" stroke="gray" d="M1253.19,-553.49C1277.49,-550.313 1312.97,-541.862 1334,-519.4 1355.37,-496.579 1336.32,-478.448 1352,-451.4 1381.44,-400.608 1398.68,-393.351 1446,-358.6 1540.9,-288.904 1567.09,-267.782 1680,-234.4 1704.67,-227.106 1731.8,-222.64 1757.78,-219.966"/>
<polygon fill="gray" stroke="gray" points="1758.43,-223.42 1768.06,-218.994 1757.77,-216.451 1758.43,-223.42"/>
<text text-anchor="middle" x="1554" y="-362.2" font-family="Times,serif" font-size="14.00">prov:hadRole</text>
</g>
<!-- Rex:Dreadnought_Guitar -->
<g id="node55" class="node"><title>Rex:Dreadnought_Guitar</title>
<ellipse fill="none" stroke="blue" cx="1554" cy="-483.4" rx="108" ry="27"/>
<text text-anchor="middle" x="1554" y="-477.8" font-family="Times,serif" font-size="14.00">ex:Dreadnought_Guitar</text>
</g>
<!-- B_:genid2&#45;&gt;Rex:Dreadnought_Guitar -->
<g id="edge56" class="edge"><title>B_:genid2&#45;&gt;Rex:Dreadnought_Guitar</title>
<path fill="none" stroke="gray" d="M1252.58,-549.75C1297.24,-539.888 1391.43,-519.084 1462.51,-503.385"/>
<polygon fill="gray" stroke="gray" points="1463.37,-506.779 1472.38,-501.205 1461.86,-499.944 1463.37,-506.779"/>
<text text-anchor="middle" x="1390" y="-529.2" font-family="Times,serif" font-size="14.00">prov:hadPlan</text>
</g>
<!-- Rhttp://carolanguitar.com/2014/08/11/dread/ -->
<g id="node57" class="node"><title>Rhttp://carolanguitar.com/2014/08/11/dread/</title>
<ellipse fill="none" stroke="blue" cx="1554" cy="-411.4" rx="108" ry="27"/>
<text text-anchor="middle" x="1554" y="-405.8" font-family="Times,serif" font-size="14.00">http://carolanguitar.com/2014/08/11/dread/</text>
</g>
<!-- B_:genid2&#45;&gt;Rhttp://carolanguitar.com/2014/08/11/dread/ -->
<g id="edge58" class="edge"><title>B_:genid2&#45;&gt;Rhttp://carolanguitar.com/2014/08/11/dread/</title>
<path fill="none" stroke="gray" d="M1253,-551.531C1276.16,-547.021 1310.01,-537.714 1334,-519.4 1345.41,-510.694 1341.15,-501.994 1352,-492.6 1387.04,-462.25 1403.06,-464.869 1446,-447.4 1455.8,-443.413 1466.22,-439.507 1476.57,-435.825"/>
<polygon fill="gray" stroke="gray" points="1477.75,-439.12 1486.04,-432.511 1475.44,-432.513 1477.75,-439.12"/>
<text text-anchor="middle" x="1390" y="-496.2" font-family="Times,serif" font-size="14.00">rdfs:seeAlso</text>
</g>
<!-- Rex:Nick_Perez&#45;&gt;Rex:Guitarist -->
<g id="edge76" class="edge"><title>Rex:Nick_Perez&#45;&gt;Rex:Guitarist</title>
<path fill="none" stroke="gray" d="M1637.82,-538.277C1647,-533.457 1655.39,-527.289 1662,-519.4 1696.85,-477.781 1638.89,-434.042 1680,-398.6 1698.43,-382.711 1755.9,-395.564 1803.71,-410.276"/>
<polygon fill="gray" stroke="gray" points="1802.85,-413.674 1813.44,-413.335 1804.95,-406.997 1802.85,-413.674"/>
<text text-anchor="middle" x="1715" y="-402.2" font-family="Times,serif" font-size="14.00">rdf:type</text>
</g>
<!-- Rex:Nick_Perez&#45;&gt;Rprov:Person -->
<g id="edge78" class="edge"><title>Rex:Nick_Perez&#45;&gt;Rprov:Person</title>
<path fill="none" stroke="gray" d="M1638.46,-572.352C1647.47,-577.202 1655.66,-583.423 1662,-591.4 1687.57,-623.555 1651.17,-746.135 1680,-775.4 1686.39,-781.888 1721.47,-786.795 1760.16,-790.309"/>
<polygon fill="gray" stroke="gray" points="1760.33,-793.837 1770.6,-791.218 1760.94,-786.864 1760.33,-793.837"/>
<text text-anchor="middle" x="1715" y="-792.2" font-family="Times,serif" font-size="14.00">rdf:type</text>
</g>
<!-- Rex:Nick_Perez&#45;&gt;Rprov:Agent -->
<g id="edge80" class="edge"><title>Rex:Nick_Perez&#45;&gt;Rprov:Agent</title>
<path fill="none" stroke="gray" d="M1636.1,-572.944C1645.73,-577.694 1654.71,-583.73 1662,-591.4 1682.36,-612.813 1659.04,-634.574 1680,-655.4 1702.89,-678.138 1721.35,-659.762 1750,-674.6 1759.2,-679.364 1758.94,-684.377 1768,-689.4 1776.14,-693.915 1784.95,-697.994 1793.89,-701.643"/>
<polygon fill="gray" stroke="gray" points="1792.64,-704.915 1803.23,-705.291 1795.19,-698.394 1792.64,-704.915"/>
<text text-anchor="middle" x="1715" y="-678.2" font-family="Times,serif" font-size="14.00">rdf:type</text>
</g>
<!-- Rex:Nick_Perez&#45;&gt;Rfoaf:Person -->
<g id="edge82" class="edge"><title>Rex:Nick_Perez&#45;&gt;Rfoaf:Person</title>
<path fill="none" stroke="gray" d="M1651.12,-543.472C1685.24,-544.079 1722.06,-550.817 1750,-571.6 1767.55,-584.654 1752.15,-602.326 1768,-617.4 1773.37,-622.508 1779.49,-626.892 1786.02,-630.656"/>
<polygon fill="gray" stroke="gray" points="1784.65,-633.893 1795.14,-635.412 1787.89,-627.686 1784.65,-633.893"/>
<text text-anchor="middle" x="1715" y="-575.2" font-family="Times,serif" font-size="14.00">rdf:type</text>
</g>
<!-- Rex:Nick_Perez&#45;&gt;Rex:Luthier -->
<g id="edge74" class="edge"><title>Rex:Nick_Perez&#45;&gt;Rex:Luthier</title>
<path fill="none" stroke="gray" d="M1638.67,-538.607C1647.64,-533.731 1655.76,-527.46 1662,-519.4 1696.47,-474.862 1643.83,-309.771 1680,-266.6 1692.58,-251.58 1731.62,-240.272 1771.49,-232.31"/>
<polygon fill="gray" stroke="gray" points="1772.2,-235.738 1781.36,-230.408 1770.88,-228.864 1772.2,-235.738"/>
<text text-anchor="middle" x="1715" y="-270.2" font-family="Times,serif" font-size="14.00">rdf:type</text>
</g>
<!-- LNick Perez -->
<g id="node75" class="node"><title>LNick Perez</title>
<polygon fill="none" stroke="black" points="1768,-335.4 1768,-389.4 1984,-389.4 1984,-335.4 1768,-335.4"/>
<text text-anchor="middle" x="1876" y="-356.9" font-family="Times,serif" font-size="14.00">Nick Perez</text>
</g>
<!-- Rex:Nick_Perez&#45;&gt;LNick Perez -->
<g id="edge84" class="edge"><title>Rex:Nick_Perez&#45;&gt;LNick Perez</title>
<path fill="none" stroke="gray" d="M1638.29,-538.309C1647.33,-533.482 1655.57,-527.304 1662,-519.4 1704.06,-467.741 1631.09,-415.823 1680,-370.6 1700.98,-351.206 1729.29,-343.697 1757.82,-342.348"/>
<polygon fill="gray" stroke="gray" points="1758,-345.845 1767.92,-342.119 1757.84,-338.847 1758,-345.845"/>
<text text-anchor="middle" x="1715" y="-374.2" font-family="Times,serif" font-size="14.00">foaf:name</text>
</g>
<!-- Rhttp://www.nperezguitars.com -->
<g id="node77" class="node"><title>Rhttp://www.nperezguitars.com</title>
<ellipse fill="none" stroke="blue" cx="1876" cy="-289.4" rx="108" ry="27"/>
<text text-anchor="middle" x="1876" y="-283.8" font-family="Times,serif" font-size="14.00">http://www.nperezguitars.com</text>
</g>
<!-- Rex:Nick_Perez&#45;&gt;Rhttp://www.nperezguitars.com -->
<g id="edge86" class="edge"><title>Rex:Nick_Perez&#45;&gt;Rhttp://www.nperezguitars.com</title>
<path fill="none" stroke="gray" d="M1638.51,-538.486C1647.51,-533.63 1655.68,-527.397 1662,-519.4 1689.23,-484.943 1650.17,-354.832 1680,-322.6 1700.64,-300.295 1730.31,-289.444 1760.31,-284.793"/>
<polygon fill="gray" stroke="gray" points="1761.03,-288.228 1770.48,-283.445 1760.11,-281.289 1761.03,-288.228"/>
<text text-anchor="middle" x="1715" y="-326.2" font-family="Times,serif" font-size="14.00">rdfs:seeAlso</text>
</g>
<!-- Rex:Luthier&#45;&gt;Rprov:Role -->
<g id="edge106" class="edge"><title>Rex:Luthier&#45;&gt;Rprov:Role</title>
<path fill="none" stroke="gray" d="M1960.61,-234.239C1969.59,-239.108 1977.73,-245.364 1984,-253.4 2015.26,-293.472 1982.35,-434.526 2002,-481.4 2016.15,-515.164 2033.92,-514.4 2056,-543.6 2095.36,-595.651 2135.84,-659.75 2159.69,-698.819"/>
<polygon fill="gray" stroke="gray" points="2156.91,-700.986 2165.1,-707.714 2162.9,-697.35 2156.91,-700.986"/>
<text text-anchor="middle" x="2029" y="-547.2" font-family="Times,serif" font-size="14.00">rdf:type</text>
</g>
<!-- Rex:Luthier&#45;&gt;Rrdfs:Class -->
<g id="edge108" class="edge"><title>Rex:Luthier&#45;&gt;Rrdfs:Class</title>
<path fill="none" stroke="gray" d="M1955.76,-235.751C1965.97,-240.384 1975.74,-246.172 1984,-253.4 2038.51,-301.098 2026.22,-333.577 2056,-399.6 2064.65,-418.785 2058.7,-428.948 2074,-443.4 2079.73,-448.809 2086.28,-453.432 2093.27,-457.381"/>
<polygon fill="gray" stroke="gray" points="2091.82,-460.573 2102.32,-462.032 2095.02,-454.348 2091.82,-460.573"/>
<text text-anchor="middle" x="2029" y="-403.2" font-family="Times,serif" font-size="14.00">rdf:type</text>
</g>
<!-- LGuitar maker -->
<g id="node96" class="node"><title>LGuitar maker</title>
<polygon fill="none" stroke="black" points="2074,-191.4 2074,-245.4 2290,-245.4 2290,-191.4 2074,-191.4"/>
<text text-anchor="middle" x="2182" y="-212.9" font-family="Times,serif" font-size="14.00">Guitar maker</text>
</g>
<!-- Rex:Luthier&#45;&gt;LGuitar maker -->
<g id="edge110" class="edge"><title>Rex:Luthier&#45;&gt;LGuitar maker</title>
<path fill="none" stroke="gray" d="M1984.18,-217.753C2009.83,-217.837 2037.36,-217.927 2063.46,-218.013"/>
<polygon fill="gray" stroke="gray" points="2063.75,-221.514 2073.76,-218.047 2063.78,-214.514 2063.75,-221.514"/>
<text text-anchor="middle" x="2029" y="-221.2" font-family="Times,serif" font-size="14.00">rdfs:label</text>
</g>
<!-- Rex:Steve_Benford&#45;&gt;Rex:Guitarist -->
<g id="edge90" class="edge"><title>Rex:Steve_Benford&#45;&gt;Rex:Guitarist</title>
<path fill="none" stroke="gray" d="M1567.62,-860.397C1597.43,-796.834 1670.42,-642.505 1680,-634.6 1704.89,-614.074 1728.88,-639.786 1750,-615.4 1792.22,-566.644 1727.18,-521.336 1768,-471.4 1772.38,-466.047 1777.58,-461.486 1783.29,-457.6"/>
<polygon fill="gray" stroke="gray" points="1785.23,-460.522 1792,-452.376 1781.62,-454.52 1785.23,-460.522"/>
<text text-anchor="middle" x="1715" y="-638.2" font-family="Times,serif" font-size="14.00">rdf:type</text>
</g>
<!-- Rex:Steve_Benford&#45;&gt;Rprov:Person -->
<g id="edge92" class="edge"><title>Rex:Steve_Benford&#45;&gt;Rprov:Person</title>
<path fill="none" stroke="gray" d="M1645.5,-901.854C1688.23,-906.571 1733.44,-907.837 1750,-895.4 1772.94,-878.17 1748.14,-854.111 1768,-833.4 1773.04,-828.148 1778.86,-823.662 1785.14,-819.831"/>
<polygon fill="gray" stroke="gray" points="1786.87,-822.876 1793.96,-815.001 1783.5,-816.737 1786.87,-822.876"/>
<text text-anchor="middle" x="1715" y="-908.2" font-family="Times,serif" font-size="14.00">rdf:type</text>
</g>
<!-- Rex:Steve_Benford&#45;&gt;Rprov:Agent -->
<g id="edge94" class="edge"><title>Rex:Steve_Benford&#45;&gt;Rprov:Agent</title>
<path fill="none" stroke="gray" d="M1652.64,-876.349C1697.5,-870.372 1742.47,-862.73 1750,-855.4 1780.47,-825.724 1740.02,-793.443 1768,-761.4 1772.59,-756.142 1777.97,-751.651 1783.84,-747.814"/>
<polygon fill="gray" stroke="gray" points="1785.85,-750.693 1792.75,-742.648 1782.34,-744.638 1785.85,-750.693"/>
<text text-anchor="middle" x="1715" y="-876.2" font-family="Times,serif" font-size="14.00">rdf:type</text>
</g>
<!-- Rex:Steve_Benford&#45;&gt;Rfoaf:Person -->
<g id="edge96" class="edge"><title>Rex:Steve_Benford&#45;&gt;Rfoaf:Person</title>
<path fill="none" stroke="gray" d="M1574.78,-860.712C1597.36,-831.922 1636.8,-786.473 1680,-758.6 1707.79,-740.674 1726.12,-756.276 1750,-733.4 1765.26,-718.783 1752.59,-703.856 1768,-689.4 1773.4,-684.329 1779.55,-679.971 1786.09,-676.226"/>
<polygon fill="gray" stroke="gray" points="1787.97,-679.197 1795.23,-671.488 1784.74,-672.982 1787.97,-679.197"/>
<text text-anchor="middle" x="1715" y="-762.2" font-family="Times,serif" font-size="14.00">rdf:type</text>
</g>
<!-- Rex:Researcher -->
<g id="node79" class="node"><title>Rex:Researcher</title>
<ellipse fill="none" stroke="blue" cx="1876" cy="-869.4" rx="108" ry="27"/>
<text text-anchor="middle" x="1876" y="-863.8" font-family="Times,serif" font-size="14.00">ex:Researcher</text>
</g>
<!-- Rex:Steve_Benford&#45;&gt;Rex:Researcher -->
<g id="edge88" class="edge"><title>Rex:Steve_Benford&#45;&gt;Rex:Researcher</title>
<path fill="none" stroke="gray" d="M1618.27,-909.107C1632.77,-914.452 1648.02,-920.379 1662,-926.4 1670.22,-929.937 1671.29,-933.345 1680,-935.4 1710.28,-942.548 1722.93,-950.728 1750,-935.4 1763.53,-927.739 1755.88,-915.147 1768,-905.4 1774.17,-900.433 1781.07,-896.137 1788.3,-892.424"/>
<polygon fill="gray" stroke="gray" points="1790.06,-895.462 1797.61,-888.026 1787.07,-889.133 1790.06,-895.462"/>
<text text-anchor="middle" x="1715" y="-947.2" font-family="Times,serif" font-size="14.00">rdf:type</text>
</g>
<!-- LSteve Benford -->
<g id="node85" class="node"><title>LSteve Benford</title>
<polygon fill="none" stroke="black" points="1768,-915.4 1768,-969.4 1984,-969.4 1984,-915.4 1768,-915.4"/>
<text text-anchor="middle" x="1876" y="-936.9" font-family="Times,serif" font-size="14.00">Steve Benford</text>
</g>
<!-- Rex:Steve_Benford&#45;&gt;LSteve Benford -->
<g id="edge98" class="edge"><title>Rex:Steve_Benford&#45;&gt;LSteve Benford</title>
<path fill="none" stroke="gray" d="M1630.88,-906.546C1642.17,-911.704 1653.01,-918.21 1662,-926.4 1675.81,-938.987 1664.21,-954.407 1680,-964.4 1715.3,-986.737 1761.51,-982.632 1800.09,-972.288"/>
<polygon fill="gray" stroke="gray" points="1801.07,-975.649 1809.73,-969.537 1799.15,-968.918 1801.07,-975.649"/>
<text text-anchor="middle" x="1715" y="-984.2" font-family="Times,serif" font-size="14.00">foaf:name</text>
</g>
<!-- Rhttps://www.nottingham.ac.uk/computerscience/people/steve.benford -->
<g id="node87" class="node"><title>Rhttps://www.nottingham.ac.uk/computerscience/people/steve.benford</title>
<ellipse fill="none" stroke="blue" cx="1876" cy="-1015.4" rx="108" ry="27"/>
<text text-anchor="middle" x="1876" y="-1009.8" font-family="Times,serif" font-size="14.00">https://www.nottingham.ac.uk/computerscience/people/steve.benford</text>
</g>
<!-- Rex:Steve_Benford&#45;&gt;Rhttps://www.nottingham.ac.uk/computerscience/people/steve.benford -->
<g id="edge100" class="edge"><title>Rex:Steve_Benford&#45;&gt;Rhttps://www.nottingham.ac.uk/computerscience/people/steve.benford</title>
<path fill="none" stroke="gray" d="M1633.77,-905.675C1644.37,-910.931 1654.23,-917.695 1662,-926.4 1684.82,-951.981 1653.86,-979.226 1680,-1001.4 1706.15,-1023.59 1742.04,-1030.44 1775.91,-1030.61"/>
<polygon fill="gray" stroke="gray" points="1776.39,-1034.1 1786.34,-1030.45 1776.29,-1027.1 1776.39,-1034.1"/>
<text text-anchor="middle" x="1715" y="-1032.2" font-family="Times,serif" font-size="14.00">rdfs:seeAlso</text>
</g>
<!-- Rex:Researcher&#45;&gt;Rprov:Role -->
<g id="edge112" class="edge"><title>Rex:Researcher&#45;&gt;Rprov:Role</title>
<path fill="none" stroke="gray" d="M1944.32,-848.366C1957.6,-843.765 1971.34,-838.681 1984,-833.4 2033.71,-812.667 2088.3,-784.814 2127.38,-763.934"/>
<polygon fill="gray" stroke="gray" points="2129.31,-766.867 2136.47,-759.053 2126,-760.7 2129.31,-766.867"/>
<text text-anchor="middle" x="2029" y="-827.2" font-family="Times,serif" font-size="14.00">rdf:type</text>
</g>
<!-- Rex:Researcher&#45;&gt;Rrdfs:Class -->
<g id="edge114" class="edge"><title>Rex:Researcher&#45;&gt;Rrdfs:Class</title>
<path fill="none" stroke="gray" d="M1957.45,-851.61C1967.24,-846.898 1976.43,-840.938 1984,-833.4 2001.57,-815.904 1991.59,-803.104 2002,-780.6 2048.53,-679.961 2119.83,-570.047 2156.84,-515.37"/>
<polygon fill="gray" stroke="gray" points="2159.75,-517.316 2162.47,-507.078 2153.96,-513.382 2159.75,-517.316"/>
<text text-anchor="middle" x="2029" y="-784.2" font-family="Times,serif" font-size="14.00">rdf:type</text>
</g>
<!-- LResearcher -->
<g id="node100" class="node"><title>LResearcher</title>
<polygon fill="none" stroke="black" points="2074,-842.4 2074,-896.4 2290,-896.4 2290,-842.4 2074,-842.4"/>
<text text-anchor="middle" x="2182" y="-863.9" font-family="Times,serif" font-size="14.00">Researcher</text>
</g>
<!-- Rex:Researcher&#45;&gt;LResearcher -->
<g id="edge116" class="edge"><title>Rex:Researcher&#45;&gt;LResearcher</title>
<path fill="none" stroke="gray" d="M1984.18,-869.4C2009.83,-869.4 2037.36,-869.4 2063.46,-869.4"/>
<polygon fill="gray" stroke="gray" points="2063.76,-872.9 2073.76,-869.4 2063.76,-865.9 2063.76,-872.9"/>
<text text-anchor="middle" x="2029" y="-872.2" font-family="Times,serif" font-size="14.00">rdfs:label</text>
</g>
</g>
</svg>
