<?xml version="1.0" encoding="UTF-8" standalone="no"?>
<!DOCTYPE svg PUBLIC "-//W3C//DTD SVG 1.0//EN"
 "http://www.w3.org/TR/2001/REC-SVG-20010904/DTD/svg10.dtd" [
 <!ATTLIST svg xmlns:xlink CDATA #FIXED "http://www.w3.org/1999/xlink">
]>
<!-- Generated by Graphviz version 2.20.2 (Tue Feb &#160;9 23:19:36 UTC 2010)
     For user: (root) root -->
<!-- Title: d1e293 Pages: 1 -->
<svg width="1820pt" height="500pt"
 viewBox="0.00 0.00 1820.00 500.00" xmlns="http://www.w3.org/2000/svg" xmlns:xlink="http://www.w3.org/1999/xlink">
<g id="graph0" class="graph" transform="scale(1 1) rotate(0) translate(4 496)">
<title>d1e293</title>
<polygon style="fill:white;stroke:white;" points="-4,4 -4,-496 1816,-496 1816,4 -4,4"/>
<text text-anchor="middle" x="906" y="-7.9" style="font-family:Times New Roman;font-size:14.00px;">Powered by http://rhizomik.net</text>
<!-- http://carolanguitar.com -->
<g id="node1" class="node"><title>http://carolanguitar.com</title>
<a xlink:href="http://carolanguitar.com" xlink:title="http://carolanguitar.com">
<polygon style="fill:none;stroke:black;" points="1009,-364.5 879,-364.5 879,-343.5 1009,-343.5 1009,-364.5"/>
<text text-anchor="middle" x="944" y="-351.5" style="font-family:Times New Roman;font-size:10.00px;fill:blue;">http://carolanguitar.com</text>
</a>
</g>
<!-- ex:Spruce_piece -->
<g id="node2" class="node"><title>ex:Spruce_piece</title>
<a xlink:href="ex:Spruce_piece" xlink:title="ex:Spruce_piece">
<polygon style="fill:none;stroke:black;" points="1456,-474.5 1252,-474.5 1252,-453.5 1456,-453.5 1456,-474.5"/>
<text text-anchor="middle" x="1354" y="-461.5" style="font-family:Times New Roman;font-size:10.00px;fill:blue;">ex:Spruce_piece</text>
</a>
</g>
<!-- ex:Coquette_performance -->
<g id="node3" class="node"><title>ex:Coquette_performance</title>
<a xlink:href="ex:Coquette_performance" xlink:title="prov:Activity, ex:Performance:\nex:Coquette_performance">
<polygon style="fill:none;stroke:black;" points="271,-207 21,-207 21,-173 271,-173 271,-207"/>
<text text-anchor="middle" x="146" y="-194" style="font-family:Times New Roman;font-size:10.00px;fill:blue;">prov:Activity, ex:Performance:</text>
<text text-anchor="middle" x="146" y="-181" style="font-family:Times New Roman;font-size:10.00px;fill:blue;">ex:Coquette_performance</text>
</a>
</g>
<!-- http://carolanguitar.com/2014/11/10/31&#45;coquette/ -->
<g id="node5" class="node"><title>http://carolanguitar.com/2014/11/10/31&#45;coquette/</title>
<a xlink:href="http://carolanguitar.com/2014/11/10/31-coquette/" xlink:title="http://carolanguitar.com/2014/11/10/31&#45;coquette/">
<polygon style="fill:none;stroke:black;" points="684,-223.5 432,-223.5 432,-202.5 684,-202.5 684,-223.5"/>
<text text-anchor="middle" x="558" y="-210.5" style="font-family:Times New Roman;font-size:10.00px;fill:blue;">http://carolanguitar.com/2014/11/10/31&#45;coquette/</text>
</a>
</g>
<!-- ex:Coquette_performance&#45;&gt;http://carolanguitar.com/2014/11/10/31&#45;coquette/ -->
<g id="edge2" class="edge"><title>ex:Coquette_performance&#45;&gt;http://carolanguitar.com/2014/11/10/31&#45;coquette/</title>
<path style="fill:none;stroke:blue;" d="M271,-197C319,-200 373,-203 422,-205"/>
<polygon style="fill:blue;stroke:blue;" points="421.701,-208.488 432,-206 422.398,-201.522 421.701,-208.488"/>
<text text-anchor="middle" x="362" y="-210.5" style="font-family:Times New Roman;font-size:10.00px;">rdfs:seeAlso</text>
</g>
<!-- A1 -->
<g id="node7" class="node"><title>A1</title>
<polygon style="fill:none;stroke:black;" points="606,-119 510,-119 510,-85 606,-85 606,-119"/>
<text text-anchor="middle" x="558" y="-106" style="font-family:Times New Roman;font-size:10.00px;">prov:Association:</text>
<text text-anchor="middle" x="558" y="-93" style="font-family:Times New Roman;font-size:10.00px;"> </text>
</g>
<!-- ex:Coquette_performance&#45;&gt;A1 -->
<g id="edge4" class="edge"><title>ex:Coquette_performance&#45;&gt;A1</title>
<path style="fill:none;stroke:blue;" d="M191,-173C222,-162 265,-147 303,-138 369,-122 447,-112 499,-107"/>
<polygon style="fill:blue;stroke:blue;" points="499.398,-110.478 509,-106 498.701,-103.512 499.398,-110.478"/>
<text text-anchor="middle" x="362" y="-142.5" style="font-family:Times New Roman;font-size:10.00px;">prov:qualifiedAsscoiation</text>
</g>
<!-- ex:Remi_Harris -->
<g id="node9" class="node"><title>ex:Remi_Harris</title>
<a xlink:href="ex:Remi_Harris" xlink:title="Guitaristprov:Personfoaf:Person, prov:Agent:\nex:Remi_Harris">
<polygon style="fill:none;stroke:black;" points="1058,-178 830,-178 830,-144 1058,-144 1058,-178"/>
<text text-anchor="middle" x="944" y="-165" style="font-family:Times New Roman;font-size:10.00px;fill:blue;">Guitaristprov:Personfoaf:Person, prov:Agent:</text>
<text text-anchor="middle" x="944" y="-152" style="font-family:Times New Roman;font-size:10.00px;fill:blue;">ex:Remi_Harris</text>
</a>
</g>
<!-- ex:Coquette_performance&#45;&gt;ex:Remi_Harris -->
<g id="edge6" class="edge"><title>ex:Coquette_performance&#45;&gt;ex:Remi_Harris</title>
<path style="fill:none;stroke:blue;" d="M271,-185C321,-183 379,-181 432,-179 565,-174 716,-169 820,-165"/>
<polygon style="fill:blue;stroke:blue;" points="820,-168.5 830,-165 820,-161.5 820,-168.5"/>
<text text-anchor="middle" x="558" y="-183.5" style="font-family:Times New Roman;font-size:10.00px;">prov:wasAssociatedWith</text>
</g>
<!-- ex:Carolan_Guitar -->
<g id="node11" class="node"><title>ex:Carolan_Guitar</title>
<a xlink:href="ex:Carolan_Guitar" xlink:title="ex:Musical_instrument, prov:Entity:\nex:Carolan_Guitar">
<polygon style="fill:none;stroke:black;" points="663,-322 453,-322 453,-288 663,-288 663,-322"/>
<text text-anchor="middle" x="558" y="-309" style="font-family:Times New Roman;font-size:10.00px;fill:blue;">ex:Musical_instrument, prov:Entity:</text>
<text text-anchor="middle" x="558" y="-296" style="font-family:Times New Roman;font-size:10.00px;fill:blue;">ex:Carolan_Guitar</text>
</a>
</g>
<!-- ex:Coquette_performance&#45;&gt;ex:Carolan_Guitar -->
<g id="edge8" class="edge"><title>ex:Coquette_performance&#45;&gt;ex:Carolan_Guitar</title>
<path style="fill:none;stroke:blue;" d="M207,-207C282,-228 408,-263 487,-285"/>
<polygon style="fill:blue;stroke:blue;" points="486.416,-288.479 497,-288 488.427,-281.774 486.416,-288.479"/>
<text text-anchor="middle" x="362" y="-269.5" style="font-family:Times New Roman;font-size:10.00px;">prov:Used</text>
</g>
<!-- A1&#45;&gt;ex:Remi_Harris -->
<g id="edge14" class="edge"><title>A1&#45;&gt;ex:Remi_Harris</title>
<path style="fill:none;stroke:blue;" d="M607,-109C656,-117 733,-128 799,-138 808,-139 817,-141 827,-142"/>
<polygon style="fill:blue;stroke:blue;" points="826.508,-145.471 837,-144 827.881,-138.607 826.508,-145.471"/>
<text text-anchor="middle" x="747" y="-142.5" style="font-family:Times New Roman;font-size:10.00px;">prov:agent</text>
</g>
<!-- ex:Coquette_song -->
<g id="node15" class="node"><title>ex:Coquette_song</title>
<a xlink:href="ex:Coquette_song" xlink:title="prov:Entity, prov:Plan:\nCoquette">
<polygon style="fill:none;stroke:black;" points="1003,-115 885,-115 885,-81 1003,-81 1003,-115"/>
<text text-anchor="middle" x="944" y="-102" style="font-family:Times New Roman;font-size:10.00px;fill:blue;">prov:Entity, prov:Plan:</text>
<text text-anchor="middle" x="944" y="-89" style="font-family:Times New Roman;font-size:10.00px;fill:blue;">Coquette</text>
</a>
</g>
<!-- A1&#45;&gt;ex:Coquette_song -->
<g id="edge10" class="edge"><title>A1&#45;&gt;ex:Coquette_song</title>
<path style="fill:none;stroke:blue;" d="M607,-100C633,-99 666,-98 695,-98 756,-97 824,-98 874,-98"/>
<polygon style="fill:blue;stroke:blue;" points="874,-101.5 884,-98 874,-94.5001 874,-101.5"/>
<text text-anchor="middle" x="747" y="-102.5" style="font-family:Times New Roman;font-size:10.00px;">prov:hadPlan</text>
</g>
<!-- ex:Performer -->
<g id="node17" class="node"><title>ex:Performer</title>
<a xlink:href="ex:Performer" xlink:title="prov:Role:\nPlayer in a music performance">
<polygon style="fill:none;stroke:black;" points="1025,-59 863,-59 863,-25 1025,-25 1025,-59"/>
<text text-anchor="middle" x="944" y="-46" style="font-family:Times New Roman;font-size:10.00px;fill:blue;">prov:Role:</text>
<text text-anchor="middle" x="944" y="-33" style="font-family:Times New Roman;font-size:10.00px;fill:blue;">Player in a music performance</text>
</a>
</g>
<!-- A1&#45;&gt;ex:Performer -->
<g id="edge12" class="edge"><title>A1&#45;&gt;ex:Performer</title>
<path style="fill:none;stroke:blue;" d="M607,-94C633,-90 666,-85 695,-80 747,-72 806,-63 853,-56"/>
<polygon style="fill:blue;stroke:blue;" points="853.881,-59.3933 863,-54 852.508,-52.5292 853.881,-59.3933"/>
<text text-anchor="middle" x="747" y="-84.5" style="font-family:Times New Roman;font-size:10.00px;">prov:hadRole</text>
</g>
<!-- http://www.remiharris.co.uk -->
<g id="node33" class="node"><title>http://www.remiharris.co.uk</title>
<a xlink:href="http://www.remiharris.co.uk" xlink:title="http://www.remiharris.co.uk">
<polygon style="fill:none;stroke:black;" points="1426,-189.5 1282,-189.5 1282,-168.5 1426,-168.5 1426,-189.5"/>
<text text-anchor="middle" x="1354" y="-176.5" style="font-family:Times New Roman;font-size:10.00px;fill:blue;">http://www.remiharris.co.uk</text>
</a>
</g>
<!-- ex:Remi_Harris&#45;&gt;http://www.remiharris.co.uk -->
<g id="edge46" class="edge"><title>ex:Remi_Harris&#45;&gt;http://www.remiharris.co.uk</title>
<path style="fill:none;stroke:blue;" d="M1058,-166C1126,-169 1211,-173 1272,-176"/>
<polygon style="fill:blue;stroke:blue;" points="1272,-179.5 1282,-176 1272,-172.5 1272,-179.5"/>
<text text-anchor="middle" x="1148" y="-178.5" style="font-family:Times New Roman;font-size:10.00px;">rdfs:seeAlso</text>
</g>
<!-- &quot;Remi Harris&quot; -->
<g id="node48" class="node"><title>&quot;Remi Harris&quot;</title>
<text text-anchor="middle" x="1354" y="-126.5" style="font-family:Times New Roman;font-size:10.00px;">&quot;Remi Harris&quot;</text>
</g>
<!-- ex:Remi_Harris&#45;&gt;&quot;Remi Harris&quot; -->
<g id="edge48" class="edge"><title>ex:Remi_Harris&#45;&gt;&quot;Remi Harris&quot;</title>
<path style="fill:none;stroke:blue;" d="M1058,-152C1139,-146 1245,-138 1305,-133"/>
<polygon style="fill:blue;stroke:blue;" points="1305.4,-136.478 1315,-132 1304.7,-129.512 1305.4,-136.478"/>
<text text-anchor="middle" x="1148" y="-155.5" style="font-family:Times New Roman;font-size:10.00px;">foaf:name</text>
</g>
<!-- ex:Carolan_Guitar&#45;&gt;http://carolanguitar.com -->
<g id="edge42" class="edge"><title>ex:Carolan_Guitar&#45;&gt;http://carolanguitar.com</title>
<path style="fill:none;stroke:blue;" d="M663,-319C674,-320 685,-322 695,-323 753,-330 819,-339 868,-345"/>
<polygon style="fill:blue;stroke:blue;" points="867.701,-348.488 878,-346 868.398,-341.522 867.701,-348.488"/>
<text text-anchor="middle" x="747" y="-342.5" style="font-family:Times New Roman;font-size:10.00px;">rdfs:seeAlso</text>
</g>
<!-- ex:Carolan_Guitar_production -->
<g id="node36" class="node"><title>ex:Carolan_Guitar_production</title>
<a xlink:href="ex:Carolan_Guitar_production" xlink:title="prov:Activity:\nex:Carolan_Guitar_production">
<polygon style="fill:none;stroke:black;" points="1077,-322 811,-322 811,-288 1077,-288 1077,-322"/>
<text text-anchor="middle" x="944" y="-309" style="font-family:Times New Roman;font-size:10.00px;fill:blue;">prov:Activity:</text>
<text text-anchor="middle" x="944" y="-296" style="font-family:Times New Roman;font-size:10.00px;fill:blue;">ex:Carolan_Guitar_production</text>
</a>
</g>
<!-- ex:Carolan_Guitar&#45;&gt;ex:Carolan_Guitar_production -->
<g id="edge44" class="edge"><title>ex:Carolan_Guitar&#45;&gt;ex:Carolan_Guitar_production</title>
<path style="fill:none;stroke:blue;" d="M663,-305C706,-305 755,-305 800,-305"/>
<polygon style="fill:blue;stroke:blue;" points="800,-308.5 810,-305 800,-301.5 800,-308.5"/>
<text text-anchor="middle" x="747" y="-309.5" style="font-family:Times New Roman;font-size:10.00px;">prov:wasGeneratedBy</text>
</g>
<!-- ex:NickPerez -->
<g id="node12" class="node"><title>ex:NickPerez</title>
<a xlink:href="ex:NickPerez" xlink:title="ex:NickPerez">
<polygon style="fill:none;stroke:black;" points="1786,-415.5 1600,-415.5 1600,-394.5 1786,-394.5 1786,-415.5"/>
<text text-anchor="middle" x="1693" y="-402.5" style="font-family:Times New Roman;font-size:10.00px;fill:blue;">ex:NickPerez</text>
</a>
</g>
<!-- http://www.nperezguitars.com -->
<g id="node13" class="node"><title>http://www.nperezguitars.com</title>
<a xlink:href="http://www.nperezguitars.com" xlink:title="http://www.nperezguitars.com">
<polygon style="fill:none;stroke:black;" points="636,-422.5 480,-422.5 480,-401.5 636,-401.5 636,-422.5"/>
<text text-anchor="middle" x="558" y="-409.5" style="font-family:Times New Roman;font-size:10.00px;fill:blue;">http://www.nperezguitars.com</text>
</a>
</g>
<!-- https://en.wikipedia.org/wiki/Coquette_(song) -->
<g id="node32" class="node"><title>https://en.wikipedia.org/wiki/Coquette_(song)</title>
<a xlink:href="https://en.wikipedia.org/wiki/Coquette_(song)" xlink:title="https://en.wikipedia.org/wiki/Coquette_(song)">
<polygon style="fill:none;stroke:black;" points="1468,-89.5 1240,-89.5 1240,-68.5 1468,-68.5 1468,-89.5"/>
<text text-anchor="middle" x="1354" y="-76.5" style="font-family:Times New Roman;font-size:10.00px;fill:blue;">https://en.wikipedia.org/wiki/Coquette_(song)</text>
</a>
</g>
<!-- ex:Coquette_song&#45;&gt;https://en.wikipedia.org/wiki/Coquette_(song) -->
<g id="edge28" class="edge"><title>ex:Coquette_song&#45;&gt;https://en.wikipedia.org/wiki/Coquette_(song)</title>
<path style="fill:none;stroke:blue;" d="M1004,-94C1030,-93 1061,-91 1089,-89 1134,-87 1185,-85 1229,-83"/>
<polygon style="fill:blue;stroke:blue;" points="1229,-86.5001 1239,-83 1229,-79.5001 1229,-86.5001"/>
<text text-anchor="middle" x="1148" y="-93.5" style="font-family:Times New Roman;font-size:10.00px;">rdfs:seeAlso</text>
</g>
<!-- A0 -->
<g id="node19" class="node"><title>A0</title>
<polygon style="fill:none;stroke:black;" points="1402,-371 1306,-371 1306,-337 1402,-337 1402,-371"/>
<text text-anchor="middle" x="1354" y="-358" style="font-family:Times New Roman;font-size:10.00px;">prov:Association:</text>
<text text-anchor="middle" x="1354" y="-345" style="font-family:Times New Roman;font-size:10.00px;"> </text>
</g>
<!-- A0&#45;&gt;ex:NickPerez -->
<g id="edge22" class="edge"><title>A0&#45;&gt;ex:NickPerez</title>
<path style="fill:none;stroke:blue;" d="M1403,-361C1458,-370 1551,-384 1617,-394"/>
<polygon style="fill:blue;stroke:blue;" points="1616.7,-397.488 1627,-395 1617.4,-390.522 1616.7,-397.488"/>
<text text-anchor="middle" x="1532" y="-386.5" style="font-family:Times New Roman;font-size:10.00px;">prov:agent</text>
</g>
<!-- http://carolanguitar.com/2014/08/11/dread/ -->
<g id="node21" class="node"><title>http://carolanguitar.com/2014/08/11/dread/</title>
<a xlink:href="http://carolanguitar.com/2014/08/11/dread/" xlink:title="http://carolanguitar.com/2014/08/11/dread/">
<polygon style="fill:none;stroke:black;" points="1804,-360.5 1582,-360.5 1582,-339.5 1804,-339.5 1804,-360.5"/>
<text text-anchor="middle" x="1693" y="-347.5" style="font-family:Times New Roman;font-size:10.00px;fill:blue;">http://carolanguitar.com/2014/08/11/dread/</text>
</a>
</g>
<!-- A0&#45;&gt;http://carolanguitar.com/2014/08/11/dread/ -->
<g id="edge16" class="edge"><title>A0&#45;&gt;http://carolanguitar.com/2014/08/11/dread/</title>
<path style="fill:none;stroke:blue;" d="M1403,-352C1431,-351 1468,-350 1501,-349 1529,-349 1536,-349 1563,-349 1566,-349 1569,-349 1572,-349"/>
<polygon style="fill:blue;stroke:blue;" points="1572,-352.5 1582,-349 1572,-345.5 1572,-352.5"/>
<text text-anchor="middle" x="1532" y="-353.5" style="font-family:Times New Roman;font-size:10.00px;">rdfs:seeAlso</text>
</g>
<!-- ex:Dreadnought_Guitar -->
<g id="node23" class="node"><title>ex:Dreadnought_Guitar</title>
<a xlink:href="ex:Dreadnought_Guitar" xlink:title="ex:Dreadnought_Guitar">
<polygon style="fill:none;stroke:black;" points="1811,-318.5 1575,-318.5 1575,-297.5 1811,-297.5 1811,-318.5"/>
<text text-anchor="middle" x="1693" y="-305.5" style="font-family:Times New Roman;font-size:10.00px;fill:blue;">ex:Dreadnought_Guitar</text>
</a>
</g>
<!-- A0&#45;&gt;ex:Dreadnought_Guitar -->
<g id="edge18" class="edge"><title>A0&#45;&gt;ex:Dreadnought_Guitar</title>
<path style="fill:none;stroke:blue;" d="M1403,-346C1431,-342 1468,-336 1501,-331 1532,-327 1566,-323 1597,-319"/>
<polygon style="fill:blue;stroke:blue;" points="1597.4,-322.478 1607,-318 1596.7,-315.512 1597.4,-322.478"/>
<text text-anchor="middle" x="1532" y="-335.5" style="font-family:Times New Roman;font-size:10.00px;">prov:hadPlan</text>
</g>
<!-- ex:Luthier -->
<g id="node25" class="node"><title>ex:Luthier</title>
<a xlink:href="ex:Luthier" xlink:title="rdfs:Class, prov:Role:\nGuitar maker">
<polygon style="fill:none;stroke:black;" points="1750,-276 1636,-276 1636,-242 1750,-242 1750,-276"/>
<text text-anchor="middle" x="1693" y="-263" style="font-family:Times New Roman;font-size:10.00px;fill:blue;">rdfs:Class, prov:Role:</text>
<text text-anchor="middle" x="1693" y="-250" style="font-family:Times New Roman;font-size:10.00px;fill:blue;">Guitar maker</text>
</a>
</g>
<!-- A0&#45;&gt;ex:Luthier -->
<g id="edge20" class="edge"><title>A0&#45;&gt;ex:Luthier</title>
<path style="fill:none;stroke:blue;" d="M1403,-354C1430,-352 1465,-345 1490,-326 1498,-321 1494,-313 1501,-307 1528,-287 1542,-296 1574,-287 1591,-283 1609,-279 1626,-274"/>
<polygon style="fill:blue;stroke:blue;" points="1626.88,-277.393 1636,-272 1625.51,-270.529 1626.88,-277.393"/>
<text text-anchor="middle" x="1532" y="-314.5" style="font-family:Times New Roman;font-size:10.00px;">prov:hadRole</text>
</g>
<!-- ex:Nick_Perez -->
<g id="node27" class="node"><title>ex:Nick_Perez</title>
<a xlink:href="ex:Nick_Perez" xlink:title="foaf:Personprov:Personprov:AgentGuitar maker, Guitarist:\nex:Nick_Perez">
<polygon style="fill:none;stroke:black;" points="291,-404 1,-404 1,-370 291,-370 291,-404"/>
<text text-anchor="middle" x="146" y="-391" style="font-family:Times New Roman;font-size:10.00px;fill:blue;">foaf:Personprov:Personprov:AgentGuitar maker, Guitarist:</text>
<text text-anchor="middle" x="146" y="-378" style="font-family:Times New Roman;font-size:10.00px;fill:blue;">ex:Nick_Perez</text>
</a>
</g>
<!-- ex:Nick_Perez&#45;&gt;http://www.nperezguitars.com -->
<g id="edge24" class="edge"><title>ex:Nick_Perez&#45;&gt;http://www.nperezguitars.com</title>
<path style="fill:none;stroke:blue;" d="M292,-396C351,-400 417,-404 469,-406"/>
<polygon style="fill:blue;stroke:blue;" points="468.701,-409.488 479,-407 469.398,-402.522 468.701,-409.488"/>
<text text-anchor="middle" x="362" y="-406.5" style="font-family:Times New Roman;font-size:10.00px;">rdfs:seeAlso</text>
</g>
<!-- &quot;Nick Perez&quot; -->
<g id="node30" class="node"><title>&quot;Nick Perez&quot;</title>
<text text-anchor="middle" x="558" y="-359.5" style="font-family:Times New Roman;font-size:10.00px;">&quot;Nick Perez&quot;</text>
</g>
<!-- ex:Nick_Perez&#45;&gt;&quot;Nick Perez&quot; -->
<g id="edge26" class="edge"><title>ex:Nick_Perez&#45;&gt;&quot;Nick Perez&quot;</title>
<path style="fill:none;stroke:blue;" d="M292,-378C369,-373 458,-368 511,-365"/>
<polygon style="fill:blue;stroke:blue;" points="511.398,-368.478 521,-364 510.701,-361.512 511.398,-368.478"/>
<text text-anchor="middle" x="362" y="-380.5" style="font-family:Times New Roman;font-size:10.00px;">foaf:name</text>
</g>
<!-- ex:Steve_Benford -->
<g id="node34" class="node"><title>ex:Steve_Benford</title>
<a xlink:href="ex:Steve_Benford" xlink:title="ex:Steve_Benford">
<polygon style="fill:none;stroke:black;" points="1459,-315.5 1249,-315.5 1249,-294.5 1459,-294.5 1459,-315.5"/>
<text text-anchor="middle" x="1354" y="-302.5" style="font-family:Times New Roman;font-size:10.00px;fill:blue;">ex:Steve_Benford</text>
</a>
</g>
<!-- ex:Reclaimed_Mahogany_pece -->
<g id="node35" class="node"><title>ex:Reclaimed_Mahogany_pece</title>
<a xlink:href="ex:Reclaimed_Mahogany_pece" xlink:title="ex:Reclaimed_Mahogany_pece">
<polygon style="fill:none;stroke:black;" points="1489,-273.5 1219,-273.5 1219,-252.5 1489,-252.5 1489,-273.5"/>
<text text-anchor="middle" x="1354" y="-260.5" style="font-family:Times New Roman;font-size:10.00px;fill:blue;">ex:Reclaimed_Mahogany_pece</text>
</a>
</g>
<!-- ex:Carolan_Guitar_production&#45;&gt;ex:Spruce_piece -->
<g id="edge32" class="edge"><title>ex:Carolan_Guitar_production&#45;&gt;ex:Spruce_piece</title>
<path style="fill:none;stroke:blue;" d="M1066,-322C1070,-325 1074,-329 1078,-333 1094,-351 1073,-419 1089,-436 1144,-490 1241,-486 1300,-476"/>
<polygon style="fill:blue;stroke:blue;" points="1300.88,-479.393 1310,-474 1299.51,-472.529 1300.88,-479.393"/>
<text text-anchor="middle" x="1148" y="-483.5" style="font-family:Times New Roman;font-size:10.00px;">prov:used</text>
</g>
<!-- ex:Carolan_Guitar_production&#45;&gt;ex:NickPerez -->
<g id="edge40" class="edge"><title>ex:Carolan_Guitar_production&#45;&gt;ex:NickPerez</title>
<path style="fill:none;stroke:blue;" d="M1061,-322C1067,-325 1073,-329 1078,-333 1088,-341 1080,-350 1089,-357 1135,-393 1161,-375 1218,-382 1344,-398 1376,-395 1501,-401 1530,-402 1561,-403 1590,-404"/>
<polygon style="fill:blue;stroke:blue;" points="1590,-407.5 1600,-404 1590,-400.5 1590,-407.5"/>
<text text-anchor="middle" x="1354" y="-401.5" style="font-family:Times New Roman;font-size:10.00px;">prov:wasAssociatedWith</text>
</g>
<!-- ex:Carolan_Guitar_production&#45;&gt;A0 -->
<g id="edge30" class="edge"><title>ex:Carolan_Guitar_production&#45;&gt;A0</title>
<path style="fill:none;stroke:blue;" d="M1078,-322C1081,-322 1085,-323 1089,-323 1160,-332 1242,-342 1295,-348"/>
<polygon style="fill:blue;stroke:blue;" points="1294.7,-351.488 1305,-349 1295.4,-344.522 1294.7,-351.488"/>
<text text-anchor="middle" x="1148" y="-343.5" style="font-family:Times New Roman;font-size:10.00px;">prov:qualifiedAsscoiation</text>
</g>
<!-- ex:Carolan_Guitar_production&#45;&gt;ex:Steve_Benford -->
<g id="edge38" class="edge"><title>ex:Carolan_Guitar_production&#45;&gt;ex:Steve_Benford</title>
<path style="fill:none;stroke:blue;" d="M1078,-305C1129,-305 1189,-305 1239,-305"/>
<polygon style="fill:blue;stroke:blue;" points="1239,-308.5 1249,-305 1239,-301.5 1239,-308.5"/>
<text text-anchor="middle" x="1148" y="-309.5" style="font-family:Times New Roman;font-size:10.00px;">prov:wasAssociatedWith</text>
</g>
<!-- ex:Carolan_Guitar_production&#45;&gt;ex:Reclaimed_Mahogany_pece -->
<g id="edge36" class="edge"><title>ex:Carolan_Guitar_production&#45;&gt;ex:Reclaimed_Mahogany_pece</title>
<path style="fill:none;stroke:blue;" d="M1078,-288C1081,-288 1085,-287 1089,-287 1134,-282 1183,-278 1227,-274"/>
<polygon style="fill:blue;stroke:blue;" points="1227.4,-277.478 1237,-273 1226.7,-270.512 1227.4,-277.478"/>
<text text-anchor="middle" x="1148" y="-291.5" style="font-family:Times New Roman;font-size:10.00px;">prov:used</text>
</g>
<!-- ex:Flamed_Maple_piece -->
<g id="node40" class="node"><title>ex:Flamed_Maple_piece</title>
<a xlink:href="ex:Flamed_Maple_piece" xlink:title="ex:Flamed_Maple_piece">
<polygon style="fill:none;stroke:black;" points="1473,-231.5 1235,-231.5 1235,-210.5 1473,-210.5 1473,-231.5"/>
<text text-anchor="middle" x="1354" y="-218.5" style="font-family:Times New Roman;font-size:10.00px;fill:blue;">ex:Flamed_Maple_piece</text>
</a>
</g>
<!-- ex:Carolan_Guitar_production&#45;&gt;ex:Flamed_Maple_piece -->
<g id="edge34" class="edge"><title>ex:Carolan_Guitar_production&#45;&gt;ex:Flamed_Maple_piece</title>
<path style="fill:none;stroke:blue;" d="M993,-288C1021,-279 1057,-267 1089,-260 1143,-248 1204,-239 1253,-232"/>
<polygon style="fill:blue;stroke:blue;" points="1253.4,-235.478 1263,-231 1252.7,-228.512 1253.4,-235.478"/>
<text text-anchor="middle" x="1148" y="-264.5" style="font-family:Times New Roman;font-size:10.00px;">prov:used</text>
</g>
</g>
</svg>
