<?xml version="1.0" encoding="UTF-8" standalone="no"?>
<!DOCTYPE svg PUBLIC "-//W3C//DTD SVG 1.1//EN"
 "http://www.w3.org/Graphics/SVG/1.1/DTD/svg11.dtd">
<!-- Generated by graphviz version 2.28.0 (20110509.1543)
 -->
<!-- Title: _anonymous_0 Pages: 1 -->
<svg width="2950pt" height="1333pt"
 viewBox="0.00 0.00 2950.00 1332.63" xmlns="http://www.w3.org/2000/svg" xmlns:xlink="http://www.w3.org/1999/xlink">
<g id="graph1" class="graph" transform="scale(1 1) rotate(0) translate(4 1328.63)">
<title>_anonymous_0</title>
<polygon fill="white" stroke="white" points="-4,5 -4,-1328.63 2947,-1328.63 2947,5 -4,5"/>
<text text-anchor="middle" x="1471" y="-140.4" font-family="Times,serif" font-size="14.00">Model:</text>
<text text-anchor="middle" x="1471" y="-123.6" font-family="Times,serif" font-size="14.00">(Unknown)</text>
<text text-anchor="middle" x="1471" y="-90.8" font-family="Times,serif" font-size="14.00">Namespaces:</text>
<text text-anchor="middle" x="1471" y="-74" font-family="Times,serif" font-size="14.00">rdf: http://www.w3.org/1999/02/22&#45;rdf&#45;syntax&#45;ns#</text>
<text text-anchor="middle" x="1471" y="-57.2" font-family="Times,serif" font-size="14.00">rdfs: http://www.w3.org/2000/01/rdf&#45;schema#</text>
<text text-anchor="middle" x="1471" y="-40.4" font-family="Times,serif" font-size="14.00">prov: http://www.w3.org/ns/prov#</text>
<text text-anchor="middle" x="1471" y="-23.6" font-family="Times,serif" font-size="14.00">foaf: http://xmlns.com/foaf/0.1/</text>
<text text-anchor="middle" x="1471" y="-6.8" font-family="Times,serif" font-size="14.00">ex: http://vocab.example.org/</text>
<!-- B_:genid1 -->
<g id="node1" class="node"><title>B_:genid1</title>
<ellipse fill="none" stroke="green" cx="1489" cy="-881.63" rx="18" ry="18"/>
</g>
<!-- Rprov:Association -->
<g id="node3" class="node"><title>Rprov:Association</title>
<ellipse fill="none" stroke="blue" cx="1911" cy="-881.63" rx="77.0355" ry="18"/>
<text text-anchor="middle" x="1911" y="-876.03" font-family="Times,serif" font-size="14.00">prov:Association</text>
</g>
<!-- B_:genid1&#45;&gt;Rprov:Association -->
<g id="edge2" class="edge"><title>B_:genid1&#45;&gt;Rprov:Association</title>
<path fill="none" stroke="black" d="M1507.25,-881.63C1560,-881.63 1721.78,-881.63 1823.53,-881.63"/>
<polygon fill="black" stroke="black" points="1823.79,-885.13 1833.79,-881.63 1823.79,-878.13 1823.79,-885.13"/>
<text text-anchor="middle" x="1678" y="-884.43" font-family="Times,serif" font-size="14.00">rdf:type</text>
</g>
<!-- Rex:Remi_Harris -->
<g id="node5" class="node"><title>Rex:Remi_Harris</title>
<ellipse fill="none" stroke="blue" cx="1911" cy="-561.63" rx="72.9355" ry="18"/>
<text text-anchor="middle" x="1911" y="-556.03" font-family="Times,serif" font-size="14.00">ex:Remi_Harris</text>
</g>
<!-- B_:genid1&#45;&gt;Rex:Remi_Harris -->
<g id="edge4" class="edge"><title>B_:genid1&#45;&gt;Rex:Remi_Harris</title>
<path fill="none" stroke="black" d="M1506.94,-879.34C1532.75,-875.402 1583.02,-865.943 1622,-847.63 1749.7,-787.64 1853.82,-646.54 1893.13,-587.901"/>
<polygon fill="black" stroke="black" points="1896.06,-589.815 1898.66,-579.545 1890.22,-585.949 1896.06,-589.815"/>
<text text-anchor="middle" x="1678" y="-840.43" font-family="Times,serif" font-size="14.00">prov:agent</text>
</g>
<!-- Rex:Performer -->
<g id="node7" class="node"><title>Rex:Performer</title>
<ellipse fill="none" stroke="blue" cx="1911" cy="-1034.63" rx="61.9613" ry="18"/>
<text text-anchor="middle" x="1911" y="-1029.03" font-family="Times,serif" font-size="14.00">ex:Performer</text>
</g>
<!-- B_:genid1&#45;&gt;Rex:Performer -->
<g id="edge6" class="edge"><title>B_:genid1&#45;&gt;Rex:Performer</title>
<path fill="none" stroke="black" d="M1506.21,-887.534C1564.96,-908.936 1768.21,-982.977 1861.95,-1017.13"/>
<polygon fill="black" stroke="black" points="1860.89,-1020.46 1871.48,-1020.6 1863.28,-1013.89 1860.89,-1020.46"/>
<text text-anchor="middle" x="1678" y="-965.43" font-family="Times,serif" font-size="14.00">prov:hadRole</text>
</g>
<!-- Rex:Coquette_song -->
<g id="node9" class="node"><title>Rex:Coquette_song</title>
<ellipse fill="none" stroke="blue" cx="1911" cy="-1196.63" rx="80.543" ry="18"/>
<text text-anchor="middle" x="1911" y="-1191.03" font-family="Times,serif" font-size="14.00">ex:Coquette_song</text>
</g>
<!-- B_:genid1&#45;&gt;Rex:Coquette_song -->
<g id="edge8" class="edge"><title>B_:genid1&#45;&gt;Rex:Coquette_song</title>
<path fill="none" stroke="black" d="M1503.97,-892.11C1563.22,-936.541 1794.45,-1109.97 1878.9,-1173.3"/>
<polygon fill="black" stroke="black" points="1876.97,-1176.23 1887.07,-1179.43 1881.17,-1170.63 1876.97,-1176.23"/>
<text text-anchor="middle" x="1678" y="-1050.43" font-family="Times,serif" font-size="14.00">prov:hadPlan</text>
</g>
<!-- Rex:Guitarist -->
<g id="node22" class="node"><title>Rex:Guitarist</title>
<ellipse fill="none" stroke="blue" cx="2473" cy="-375.63" rx="56.7579" ry="18"/>
<text text-anchor="middle" x="2473" y="-370.03" font-family="Times,serif" font-size="14.00">ex:Guitarist</text>
</g>
<!-- Rex:Remi_Harris&#45;&gt;Rex:Guitarist -->
<g id="edge22" class="edge"><title>Rex:Remi_Harris&#45;&gt;Rex:Guitarist</title>
<path fill="none" stroke="black" d="M1977.37,-569.178C2014.75,-569.674 2059.7,-563.157 2088,-534.63 2127.16,-495.16 2065.74,-449.18 2106,-410.83 2189.88,-330.92 2338.78,-346.621 2418.35,-362.531"/>
<polygon fill="black" stroke="black" points="2417.67,-365.963 2428.17,-364.566 2419.09,-359.109 2417.67,-365.963"/>
<text text-anchor="middle" x="2141" y="-414.43" font-family="Times,serif" font-size="14.00">rdf:type</text>
</g>
<!-- Rprov:Person -->
<g id="node24" class="node"><title>Rprov:Person</title>
<ellipse fill="none" stroke="blue" cx="2473" cy="-767.63" rx="57.918" ry="18"/>
<text text-anchor="middle" x="2473" y="-762.03" font-family="Times,serif" font-size="14.00">prov:Person</text>
</g>
<!-- Rex:Remi_Harris&#45;&gt;Rprov:Person -->
<g id="edge24" class="edge"><title>Rex:Remi_Harris&#45;&gt;Rprov:Person</title>
<path fill="none" stroke="black" d="M1921.97,-579.489C1946.64,-621.573 2015.15,-726.361 2106,-765.63 2158.3,-788.237 2316.94,-780.151 2407.26,-773.281"/>
<polygon fill="black" stroke="black" points="2407.69,-776.758 2417.39,-772.494 2407.15,-769.779 2407.69,-776.758"/>
<text text-anchor="middle" x="2141" y="-780.43" font-family="Times,serif" font-size="14.00">rdf:type</text>
</g>
<!-- Rprov:Agent -->
<g id="node26" class="node"><title>Rprov:Agent</title>
<ellipse fill="none" stroke="blue" cx="2473" cy="-667.63" rx="55.0418" ry="18"/>
<text text-anchor="middle" x="2473" y="-662.03" font-family="Times,serif" font-size="14.00">prov:Agent</text>
</g>
<!-- Rex:Remi_Harris&#45;&gt;Rprov:Agent -->
<g id="edge26" class="edge"><title>Rex:Remi_Harris&#45;&gt;Rprov:Agent</title>
<path fill="none" stroke="black" d="M1941.12,-578.092C1978.13,-598.092 2044.6,-630.972 2106,-645.63 2209.78,-670.404 2334.57,-672.168 2408.36,-670.432"/>
<polygon fill="black" stroke="black" points="2408.52,-673.929 2418.42,-670.166 2408.33,-666.932 2408.52,-673.929"/>
<text text-anchor="middle" x="2141" y="-661.43" font-family="Times,serif" font-size="14.00">rdf:type</text>
</g>
<!-- Rfoaf:Person -->
<g id="node28" class="node"><title>Rfoaf:Person</title>
<ellipse fill="none" stroke="blue" cx="2473" cy="-547.63" rx="55.6075" ry="18"/>
<text text-anchor="middle" x="2473" y="-542.03" font-family="Times,serif" font-size="14.00">foaf:Person</text>
</g>
<!-- Rex:Remi_Harris&#45;&gt;Rfoaf:Person -->
<g id="edge28" class="edge"><title>Rex:Remi_Harris&#45;&gt;Rfoaf:Person</title>
<path fill="none" stroke="black" d="M1980.18,-556.084C2017.35,-553.325 2064.17,-550.277 2106,-548.83 2211.32,-545.186 2333.78,-545.76 2406.98,-546.616"/>
<polygon fill="black" stroke="black" points="2407.37,-550.121 2417.41,-546.744 2407.46,-543.121 2407.37,-550.121"/>
<text text-anchor="middle" x="2141" y="-552.43" font-family="Times,serif" font-size="14.00">rdf:type</text>
</g>
<!-- LRemi Harris -->
<g id="node30" class="node"><title>LRemi Harris</title>
<polygon fill="none" stroke="black" points="2430.59,-412.63 2430.59,-448.63 2515.41,-448.63 2515.41,-412.63 2430.59,-412.63"/>
<text text-anchor="middle" x="2473" y="-425.13" font-family="Times,serif" font-size="14.00">Remi Harris</text>
</g>
<!-- Rex:Remi_Harris&#45;&gt;LRemi Harris -->
<g id="edge30" class="edge"><title>Rex:Remi_Harris&#45;&gt;LRemi Harris</title>
<path fill="none" stroke="black" d="M1978.76,-568.4C2015.44,-568.353 2059.21,-561.551 2088,-534.63 2114.87,-509.5 2078.04,-477.74 2106,-453.83 2151.91,-414.574 2330.82,-420.764 2420.36,-426.598"/>
<polygon fill="black" stroke="black" points="2420.35,-430.105 2430.56,-427.286 2420.82,-423.121 2420.35,-430.105"/>
<text text-anchor="middle" x="2141" y="-457.43" font-family="Times,serif" font-size="14.00">foaf:name</text>
</g>
<!-- Rhttp://www.remiharris.co.uk -->
<g id="node32" class="node"><title>Rhttp://www.remiharris.co.uk</title>
<ellipse fill="none" stroke="blue" cx="2473" cy="-485.63" rx="120.203" ry="18"/>
<text text-anchor="middle" x="2473" y="-480.03" font-family="Times,serif" font-size="14.00">http://www.remiharris.co.uk</text>
</g>
<!-- Rex:Remi_Harris&#45;&gt;Rhttp://www.remiharris.co.uk -->
<g id="edge32" class="edge"><title>Rex:Remi_Harris&#45;&gt;Rhttp://www.remiharris.co.uk</title>
<path fill="none" stroke="black" d="M1982.94,-564.851C2017.37,-563.099 2057.73,-555.809 2088,-534.63 2101.62,-525.096 2091.88,-510.614 2106,-501.83 2193.86,-447.164 2317.87,-455.438 2396.6,-468.732"/>
<polygon fill="black" stroke="black" points="2396.47,-472.262 2406.92,-470.547 2397.68,-465.368 2396.47,-472.262"/>
<text text-anchor="middle" x="2141" y="-505.43" font-family="Times,serif" font-size="14.00">rdfs:seeAlso</text>
</g>
<!-- Rprov:Role -->
<g id="node89" class="node"><title>Rprov:Role</title>
<ellipse fill="none" stroke="blue" cx="2892" cy="-691.63" rx="49.8197" ry="18"/>
<text text-anchor="middle" x="2892" y="-686.03" font-family="Times,serif" font-size="14.00">prov:Role</text>
</g>
<!-- Rex:Performer&#45;&gt;Rprov:Role -->
<g id="edge102" class="edge"><title>Rex:Performer&#45;&gt;Rprov:Role</title>
<path fill="none" stroke="black" d="M1969.26,-1040.89C2007.87,-1045.02 2059.97,-1050.43 2106,-1054.63 2177.48,-1061.16 2693.7,-1103.5 2752,-1061.63 2853.71,-988.579 2795.02,-910.709 2842,-794.63 2852.65,-768.325 2866.73,-739.194 2877.06,-718.644"/>
<polygon fill="black" stroke="black" points="2880.26,-720.073 2881.66,-709.572 2874.02,-716.908 2880.26,-720.073"/>
<text text-anchor="middle" x="2473" y="-1082.43" font-family="Times,serif" font-size="14.00">rdf:type</text>
</g>
<!-- LPlayer in a music performance -->
<g id="node91" class="node"><title>LPlayer in a music performance</title>
<polygon fill="none" stroke="black" points="2379.48,-1016.63 2379.48,-1052.63 2566.52,-1052.63 2566.52,-1016.63 2379.48,-1016.63"/>
<text text-anchor="middle" x="2473" y="-1029.13" font-family="Times,serif" font-size="14.00">Player in a music performance</text>
</g>
<!-- Rex:Performer&#45;&gt;LPlayer in a music performance -->
<g id="edge104" class="edge"><title>Rex:Performer&#45;&gt;LPlayer in a music performance</title>
<path fill="none" stroke="black" d="M1973,-1034.63C2068.14,-1034.63 2252.96,-1034.63 2369.02,-1034.63"/>
<polygon fill="black" stroke="black" points="2369.33,-1038.13 2379.33,-1034.63 2369.33,-1031.13 2369.33,-1038.13"/>
<text text-anchor="middle" x="2141" y="-1037.43" font-family="Times,serif" font-size="14.00">rdfs:label</text>
</g>
<!-- Rprov:Plan -->
<g id="node34" class="node"><title>Rprov:Plan</title>
<ellipse fill="none" stroke="blue" cx="2473" cy="-1306.63" rx="48.6786" ry="18"/>
<text text-anchor="middle" x="2473" y="-1301.03" font-family="Times,serif" font-size="14.00">prov:Plan</text>
</g>
<!-- Rex:Coquette_song&#45;&gt;Rprov:Plan -->
<g id="edge34" class="edge"><title>Rex:Coquette_song&#45;&gt;Rprov:Plan</title>
<path fill="none" stroke="black" d="M1954.88,-1211.76C2009.64,-1230.47 2107.66,-1261.87 2194,-1278.63 2269.31,-1293.25 2357.68,-1300.49 2414.22,-1303.89"/>
<polygon fill="black" stroke="black" points="2414.21,-1307.4 2424.4,-1304.48 2414.61,-1300.41 2414.21,-1307.4"/>
<text text-anchor="middle" x="2141" y="-1276.43" font-family="Times,serif" font-size="14.00">rdf:type</text>
</g>
<!-- Rprov:Entity -->
<g id="node36" class="node"><title>Rprov:Entity</title>
<ellipse fill="none" stroke="blue" cx="2473" cy="-1142.63" rx="55.0512" ry="18"/>
<text text-anchor="middle" x="2473" y="-1137.03" font-family="Times,serif" font-size="14.00">prov:Entity</text>
</g>
<!-- Rex:Coquette_song&#45;&gt;Rprov:Entity -->
<g id="edge36" class="edge"><title>Rex:Coquette_song&#45;&gt;Rprov:Entity</title>
<path fill="none" stroke="black" d="M1983.83,-1188.65C2020.39,-1184.65 2065.55,-1179.83 2106,-1175.83 2212.36,-1165.3 2336.23,-1154.34 2409.17,-1148.02"/>
<polygon fill="black" stroke="black" points="2409.89,-1151.47 2419.55,-1147.12 2409.28,-1144.49 2409.89,-1151.47"/>
<text text-anchor="middle" x="2141" y="-1178.43" font-family="Times,serif" font-size="14.00">rdf:type</text>
</g>
<!-- LCoquette -->
<g id="node38" class="node"><title>LCoquette</title>
<polygon fill="none" stroke="black" points="2439.73,-1233.63 2439.73,-1269.63 2506.27,-1269.63 2506.27,-1233.63 2439.73,-1233.63"/>
<text text-anchor="middle" x="2473" y="-1246.13" font-family="Times,serif" font-size="14.00">Coquette</text>
</g>
<!-- Rex:Coquette_song&#45;&gt;LCoquette -->
<g id="edge38" class="edge"><title>Rex:Coquette_song&#45;&gt;LCoquette</title>
<path fill="none" stroke="black" d="M1984.31,-1204.21C2020.79,-1208.01 2065.74,-1212.63 2106,-1216.63 2222.97,-1228.25 2361.04,-1241.26 2429.33,-1247.65"/>
<polygon fill="black" stroke="black" points="2429.4,-1251.17 2439.68,-1248.62 2430.05,-1244.2 2429.4,-1251.17"/>
<text text-anchor="middle" x="2141" y="-1224.43" font-family="Times,serif" font-size="14.00">rdfs:label</text>
</g>
<!-- Rhttps://en.wikipedia.org/wiki/Coquette_(song) -->
<g id="node40" class="node"><title>Rhttps://en.wikipedia.org/wiki/Coquette_(song)</title>
<ellipse fill="none" stroke="blue" cx="2473" cy="-1196.63" rx="189.493" ry="18"/>
<text text-anchor="middle" x="2473" y="-1191.03" font-family="Times,serif" font-size="14.00">https://en.wikipedia.org/wiki/Coquette_(song)</text>
</g>
<!-- Rex:Coquette_song&#45;&gt;Rhttps://en.wikipedia.org/wiki/Coquette_(song) -->
<g id="edge40" class="edge"><title>Rex:Coquette_song&#45;&gt;Rhttps://en.wikipedia.org/wiki/Coquette_(song)</title>
<path fill="none" stroke="black" d="M1991.94,-1196.63C2065.05,-1196.63 2176.26,-1196.63 2273.24,-1196.63"/>
<polygon fill="black" stroke="black" points="2273.48,-1200.13 2283.48,-1196.63 2273.48,-1193.13 2273.48,-1200.13"/>
<text text-anchor="middle" x="2141" y="-1199.43" font-family="Times,serif" font-size="14.00">rdfs:seeAlso</text>
</g>
<!-- Rex:Coquette_performance -->
<g id="node10" class="node"><title>Rex:Coquette_performance</title>
<ellipse fill="none" stroke="blue" cx="112" cy="-537.63" rx="111.134" ry="18"/>
<text text-anchor="middle" x="112" y="-532.03" font-family="Times,serif" font-size="14.00">ex:Coquette_performance</text>
</g>
<!-- Rex:Coquette_performance&#45;&gt;B_:genid1 -->
<g id="edge18" class="edge"><title>Rex:Coquette_performance&#45;&gt;B_:genid1</title>
<path fill="none" stroke="black" d="M166.549,-553.349C323.287,-599.04 795.087,-734.295 1192,-824.63 1290.38,-847.019 1408.45,-868.013 1460.76,-877.015"/>
<polygon fill="black" stroke="black" points="1460.45,-880.512 1470.9,-878.75 1461.63,-873.613 1460.45,-880.512"/>
<text text-anchor="middle" x="823" y="-754.43" font-family="Times,serif" font-size="14.00">prov:qualifiedAsscoiation</text>
</g>
<!-- Rex:Coquette_performance&#45;&gt;Rex:Remi_Harris -->
<g id="edge16" class="edge"><title>Rex:Coquette_performance&#45;&gt;Rex:Remi_Harris</title>
<path fill="none" stroke="black" d="M210.653,-546.063C295.108,-552.628 420.516,-560.63 530,-560.63 530,-560.63 530,-560.63 1490,-560.63 1607.54,-560.63 1743.58,-561.026 1828.22,-561.32"/>
<polygon fill="black" stroke="black" points="1828.27,-564.82 1838.29,-561.355 1828.3,-557.82 1828.27,-564.82"/>
<text text-anchor="middle" x="1044" y="-563.43" font-family="Times,serif" font-size="14.00">prov:wasAssociatedWith</text>
</g>
<!-- Rex:Performance -->
<g id="node12" class="node"><title>Rex:Performance</title>
<ellipse fill="none" stroke="blue" cx="531" cy="-514.63" rx="72.3318" ry="18"/>
<text text-anchor="middle" x="531" y="-509.03" font-family="Times,serif" font-size="14.00">ex:Performance</text>
</g>
<!-- Rex:Coquette_performance&#45;&gt;Rex:Performance -->
<g id="edge10" class="edge"><title>Rex:Coquette_performance&#45;&gt;Rex:Performance</title>
<path fill="none" stroke="black" d="M216.498,-531.302C225.124,-530.796 233.712,-530.299 242,-529.83 312.266,-525.851 392.194,-521.659 449.992,-518.688"/>
<polygon fill="black" stroke="black" points="450.349,-522.174 460.156,-518.166 449.99,-515.183 450.349,-522.174"/>
<text text-anchor="middle" x="277" y="-533.43" font-family="Times,serif" font-size="14.00">rdf:type</text>
</g>
<!-- Rprov:Activity -->
<g id="node14" class="node"><title>Rprov:Activity</title>
<ellipse fill="none" stroke="blue" cx="1489" cy="-454.63" rx="63.1399" ry="18"/>
<text text-anchor="middle" x="1489" y="-449.03" font-family="Times,serif" font-size="14.00">prov:Activity</text>
</g>
<!-- Rex:Coquette_performance&#45;&gt;Rprov:Activity -->
<g id="edge12" class="edge"><title>Rex:Coquette_performance&#45;&gt;Rprov:Activity</title>
<path fill="none" stroke="black" d="M167.307,-521.964C210.876,-510.164 273.822,-494.83 330,-487.63 738.263,-435.302 1233.83,-445.549 1416.2,-451.764"/>
<polygon fill="black" stroke="black" points="1416.35,-455.272 1426.46,-452.121 1416.59,-448.276 1416.35,-455.272"/>
<text text-anchor="middle" x="823" y="-456.43" font-family="Times,serif" font-size="14.00">rdf:type</text>
</g>
<!-- Rex:Carolan_Guitar -->
<g id="node16" class="node"><title>Rex:Carolan_Guitar</title>
<ellipse fill="none" stroke="blue" cx="531" cy="-925.63" rx="82.8051" ry="18"/>
<text text-anchor="middle" x="531" y="-920.03" font-family="Times,serif" font-size="14.00">ex:Carolan_Guitar</text>
</g>
<!-- Rex:Coquette_performance&#45;&gt;Rex:Carolan_Guitar -->
<g id="edge14" class="edge"><title>Rex:Coquette_performance&#45;&gt;Rex:Carolan_Guitar</title>
<path fill="none" stroke="black" d="M114.564,-555.932C120.297,-611.065 145.202,-776.846 242,-859.63 296.007,-905.818 375.904,-921.344 437.853,-925.868"/>
<polygon fill="black" stroke="black" points="437.82,-929.373 448.025,-926.524 438.271,-922.387 437.82,-929.373"/>
<text text-anchor="middle" x="277" y="-901.43" font-family="Times,serif" font-size="14.00">prov:Used</text>
</g>
<!-- Rhttp://carolanguitar.com/2014/11/10/31&#45;coquette/ -->
<g id="node20" class="node"><title>Rhttp://carolanguitar.com/2014/11/10/31&#45;coquette/</title>
<ellipse fill="none" stroke="blue" cx="531" cy="-409.63" rx="200.665" ry="18"/>
<text text-anchor="middle" x="531" y="-404.03" font-family="Times,serif" font-size="14.00">http://carolanguitar.com/2014/11/10/31&#45;coquette/</text>
</g>
<!-- Rex:Coquette_performance&#45;&gt;Rhttp://carolanguitar.com/2014/11/10/31&#45;coquette/ -->
<g id="edge20" class="edge"><title>Rex:Coquette_performance&#45;&gt;Rhttp://carolanguitar.com/2014/11/10/31&#45;coquette/</title>
<path fill="none" stroke="black" d="M126.882,-519.473C148.279,-493.085 192.106,-445.083 242,-424.83 276.031,-411.015 314.205,-403.87 351.355,-400.705"/>
<polygon fill="black" stroke="black" points="352.093,-404.159 361.801,-399.916 351.566,-397.179 352.093,-404.159"/>
<text text-anchor="middle" x="277" y="-428.43" font-family="Times,serif" font-size="14.00">rdfs:seeAlso</text>
</g>
<!-- Rex:Carolan_Guitar&#45;&gt;Rprov:Entity -->
<g id="edge44" class="edge"><title>Rex:Carolan_Guitar&#45;&gt;Rprov:Entity</title>
<path fill="none" stroke="black" d="M557.306,-942.757C629.633,-989.991 844.801,-1118.63 1043,-1118.63 1043,-1118.63 1043,-1118.63 1912,-1118.63 2092.4,-1118.63 2305.19,-1131.22 2408.86,-1138.16"/>
<polygon fill="black" stroke="black" points="2408.93,-1141.67 2419.14,-1138.85 2409.4,-1134.69 2408.93,-1141.67"/>
<text text-anchor="middle" x="1489" y="-1121.43" font-family="Times,serif" font-size="14.00">rdf:type</text>
</g>
<!-- Rex:Musical_instrument -->
<g id="node42" class="node"><title>Rex:Musical_instrument</title>
<ellipse fill="none" stroke="blue" cx="1044" cy="-979.63" rx="100.161" ry="18"/>
<text text-anchor="middle" x="1044" y="-974.03" font-family="Times,serif" font-size="14.00">ex:Musical_instrument</text>
</g>
<!-- Rex:Carolan_Guitar&#45;&gt;Rex:Musical_instrument -->
<g id="edge42" class="edge"><title>Rex:Carolan_Guitar&#45;&gt;Rex:Musical_instrument</title>
<path fill="none" stroke="black" d="M605.758,-933.424C695.809,-942.94 848.309,-959.056 947.314,-969.518"/>
<polygon fill="black" stroke="black" points="947.008,-973.005 957.32,-970.575 947.744,-966.044 947.008,-973.005"/>
<text text-anchor="middle" x="823" y="-966.43" font-family="Times,serif" font-size="14.00">rdf:type</text>
</g>
<!-- Rex:Carolan_Guitar_production -->
<g id="node45" class="node"><title>Rex:Carolan_Guitar_production</title>
<ellipse fill="none" stroke="blue" cx="1044" cy="-686.63" rx="129.64" ry="18"/>
<text text-anchor="middle" x="1044" y="-681.03" font-family="Times,serif" font-size="14.00">ex:Carolan_Guitar_production</text>
</g>
<!-- Rex:Carolan_Guitar&#45;&gt;Rex:Carolan_Guitar_production -->
<g id="edge46" class="edge"><title>Rex:Carolan_Guitar&#45;&gt;Rex:Carolan_Guitar_production</title>
<path fill="none" stroke="black" d="M608.028,-918.922C699.916,-909.749 848.176,-891.217 896,-863.63 958.784,-827.413 1006.42,-753.612 1028.84,-713.702"/>
<polygon fill="black" stroke="black" points="1031.98,-715.243 1033.74,-704.794 1025.85,-711.869 1031.98,-715.243"/>
<text text-anchor="middle" x="823" y="-902.43" font-family="Times,serif" font-size="14.00">prov:wasGeneratedBy</text>
</g>
<!-- Rhttp://carolanguitar.com -->
<g id="node47" class="node"><title>Rhttp://carolanguitar.com</title>
<ellipse fill="none" stroke="blue" cx="1044" cy="-925.63" rx="103.62" ry="18"/>
<text text-anchor="middle" x="1044" y="-920.03" font-family="Times,serif" font-size="14.00">http://carolanguitar.com</text>
</g>
<!-- Rex:Carolan_Guitar&#45;&gt;Rhttp://carolanguitar.com -->
<g id="edge48" class="edge"><title>Rex:Carolan_Guitar&#45;&gt;Rhttp://carolanguitar.com</title>
<path fill="none" stroke="black" d="M614.101,-925.63C699.71,-925.63 834.495,-925.63 930.096,-925.63"/>
<polygon fill="black" stroke="black" points="930.386,-929.13 940.386,-925.63 930.386,-922.13 930.386,-929.13"/>
<text text-anchor="middle" x="823" y="-928.43" font-family="Times,serif" font-size="14.00">rdfs:seeAlso</text>
</g>
<!-- Rex:Guitarist&#45;&gt;Rprov:Role -->
<g id="edge118" class="edge"><title>Rex:Guitarist&#45;&gt;Rprov:Role</title>
<path fill="none" stroke="black" d="M2519.05,-365.136C2580.16,-353.818 2688.89,-344.455 2752,-402.63 2785.2,-433.238 2753.51,-460.589 2770,-502.63 2794.98,-566.327 2842.63,-631.575 2870.09,-666.27"/>
<polygon fill="black" stroke="black" points="2867.63,-668.795 2876.61,-674.413 2873.09,-664.419 2867.63,-668.795"/>
<text text-anchor="middle" x="2797" y="-602.43" font-family="Times,serif" font-size="14.00">rdf:type</text>
</g>
<!-- Rrdfs:Class -->
<g id="node94" class="node"><title>Rrdfs:Class</title>
<ellipse fill="none" stroke="blue" cx="2892" cy="-409.63" rx="49.8291" ry="18"/>
<text text-anchor="middle" x="2892" y="-404.03" font-family="Times,serif" font-size="14.00">rdfs:Class</text>
</g>
<!-- Rex:Guitarist&#45;&gt;Rrdfs:Class -->
<g id="edge120" class="edge"><title>Rex:Guitarist&#45;&gt;Rrdfs:Class</title>
<path fill="none" stroke="black" d="M2528.09,-380.04C2606.91,-386.467 2752.73,-398.356 2833.46,-404.938"/>
<polygon fill="black" stroke="black" points="2833.2,-408.429 2843.45,-405.753 2833.77,-401.452 2833.2,-408.429"/>
<text text-anchor="middle" x="2797" y="-407.43" font-family="Times,serif" font-size="14.00">rdf:type</text>
</g>
<!-- LGuitarist -->
<g id="node104" class="node"><title>LGuitarist</title>
<polygon fill="none" stroke="black" points="2859.5,-336.63 2859.5,-372.63 2924.5,-372.63 2924.5,-336.63 2859.5,-336.63"/>
<text text-anchor="middle" x="2892" y="-349.13" font-family="Times,serif" font-size="14.00">Guitarist</text>
</g>
<!-- Rex:Guitarist&#45;&gt;LGuitarist -->
<g id="edge122" class="edge"><title>Rex:Guitarist&#45;&gt;LGuitarist</title>
<path fill="none" stroke="black" d="M2529.37,-372.841C2614.01,-368.579 2773.68,-360.538 2849.29,-356.73"/>
<polygon fill="black" stroke="black" points="2849.57,-360.221 2859.38,-356.222 2849.22,-353.23 2849.57,-360.221"/>
<text text-anchor="middle" x="2797" y="-363.43" font-family="Times,serif" font-size="14.00">rdfs:label</text>
</g>
<!-- Rex:Carolan_Guitar_production&#45;&gt;Rprov:Activity -->
<g id="edge60" class="edge"><title>Rex:Carolan_Guitar_production&#45;&gt;Rprov:Activity</title>
<path fill="none" stroke="black" d="M1076.13,-669.072C1105.73,-650.771 1149.3,-619.368 1174,-580.63 1191.23,-553.617 1168.62,-532.738 1192,-510.83 1223.87,-480.961 1340.12,-466.146 1417.11,-459.454"/>
<polygon fill="black" stroke="black" points="1417.55,-462.929 1427.23,-458.601 1416.97,-455.954 1417.55,-462.929"/>
<text text-anchor="middle" x="1265" y="-514.43" font-family="Times,serif" font-size="14.00">rdf:type</text>
</g>
<!-- B_:genid2 -->
<g id="node48" class="node"><title>B_:genid2</title>
<ellipse fill="none" stroke="green" cx="1489" cy="-508.63" rx="18" ry="18"/>
</g>
<!-- Rex:Carolan_Guitar_production&#45;&gt;B_:genid2 -->
<g id="edge72" class="edge"><title>Rex:Carolan_Guitar_production&#45;&gt;B_:genid2</title>
<path fill="none" stroke="black" d="M1063.25,-668.71C1089.49,-643.991 1140.4,-599.78 1192,-575.83 1284.79,-532.76 1407.06,-516.369 1460.75,-510.961"/>
<polygon fill="black" stroke="black" points="1461.21,-514.432 1470.83,-509.995 1460.54,-507.464 1461.21,-514.432"/>
<text text-anchor="middle" x="1265" y="-579.43" font-family="Times,serif" font-size="14.00">prov:qualifiedAsscoiation</text>
</g>
<!-- Rex:Nick_Perez -->
<g id="node51" class="node"><title>Rex:Nick_Perez</title>
<ellipse fill="none" stroke="blue" cx="1911" cy="-507.63" rx="67.7592" ry="18"/>
<text text-anchor="middle" x="1911" y="-502.03" font-family="Times,serif" font-size="14.00">ex:Nick_Perez</text>
</g>
<!-- Rex:Carolan_Guitar_production&#45;&gt;Rex:Nick_Perez -->
<g id="edge62" class="edge"><title>Rex:Carolan_Guitar_production&#45;&gt;Rex:Nick_Perez</title>
<path fill="none" stroke="black" d="M1108.81,-670.972C1230.08,-641.571 1502.39,-577.233 1734,-534.63 1768.84,-528.221 1807.76,-522.139 1840.12,-517.376"/>
<polygon fill="black" stroke="black" points="1840.99,-520.786 1850.38,-515.877 1839.98,-513.859 1840.99,-520.786"/>
<text text-anchor="middle" x="1489" y="-616.43" font-family="Times,serif" font-size="14.00">prov:wasAssociatedWith</text>
</g>
<!-- Rex:Steve_Benford -->
<g id="node61" class="node"><title>Rex:Steve_Benford</title>
<ellipse fill="none" stroke="blue" cx="1911" cy="-827.63" rx="80.5241" ry="18"/>
<text text-anchor="middle" x="1911" y="-822.03" font-family="Times,serif" font-size="14.00">ex:Steve_Benford</text>
</g>
<!-- Rex:Carolan_Guitar_production&#45;&gt;Rex:Steve_Benford -->
<g id="edge64" class="edge"><title>Rex:Carolan_Guitar_production&#45;&gt;Rex:Steve_Benford</title>
<path fill="none" stroke="black" d="M1157.75,-695.268C1169.31,-696.094 1180.89,-696.896 1192,-697.63 1424.76,-713 1490.97,-666.182 1716,-727.63 1776.24,-744.078 1839.31,-780.786 1876.61,-804.856"/>
<polygon fill="black" stroke="black" points="1874.78,-807.843 1885.07,-810.385 1878.61,-801.984 1874.78,-807.843"/>
<text text-anchor="middle" x="1489" y="-708.43" font-family="Times,serif" font-size="14.00">prov:wasAssociatedWith</text>
</g>
<!-- Rex:Reclaimed_Mahogany_pece -->
<g id="node63" class="node"><title>Rex:Reclaimed_Mahogany_pece</title>
<ellipse fill="none" stroke="blue" cx="1489" cy="-659.63" rx="132.543" ry="18"/>
<text text-anchor="middle" x="1489" y="-654.03" font-family="Times,serif" font-size="14.00">ex:Reclaimed_Mahogany_pece</text>
</g>
<!-- Rex:Carolan_Guitar_production&#45;&gt;Rex:Reclaimed_Mahogany_pece -->
<g id="edge66" class="edge"><title>Rex:Carolan_Guitar_production&#45;&gt;Rex:Reclaimed_Mahogany_pece</title>
<path fill="none" stroke="black" d="M1162.84,-679.447C1222.82,-675.792 1295.88,-671.339 1357.54,-667.581"/>
<polygon fill="black" stroke="black" points="1357.96,-671.062 1367.73,-666.96 1357.54,-664.075 1357.96,-671.062"/>
<text text-anchor="middle" x="1265" y="-680.43" font-family="Times,serif" font-size="14.00">prov:used</text>
</g>
<!-- Rex:Flamed_Maple_piece -->
<g id="node65" class="node"><title>Rex:Flamed_Maple_piece</title>
<ellipse fill="none" stroke="blue" cx="1489" cy="-820.63" rx="106.496" ry="18"/>
<text text-anchor="middle" x="1489" y="-815.03" font-family="Times,serif" font-size="14.00">ex:Flamed_Maple_piece</text>
</g>
<!-- Rex:Carolan_Guitar_production&#45;&gt;Rex:Flamed_Maple_piece -->
<g id="edge68" class="edge"><title>Rex:Carolan_Guitar_production&#45;&gt;Rex:Flamed_Maple_piece</title>
<path fill="none" stroke="black" d="M1069.69,-704.387C1097.88,-723.764 1146.05,-754.209 1192,-770.63 1253,-792.429 1324.54,-804.847 1382,-811.854"/>
<polygon fill="black" stroke="black" points="1381.85,-815.361 1392.2,-813.059 1382.68,-808.409 1381.85,-815.361"/>
<text text-anchor="middle" x="1265" y="-807.43" font-family="Times,serif" font-size="14.00">prov:used</text>
</g>
<!-- Rex:Spruce_piece -->
<g id="node67" class="node"><title>Rex:Spruce_piece</title>
<ellipse fill="none" stroke="blue" cx="1489" cy="-766.63" rx="74.6978" ry="18"/>
<text text-anchor="middle" x="1489" y="-761.03" font-family="Times,serif" font-size="14.00">ex:Spruce_piece</text>
</g>
<!-- Rex:Carolan_Guitar_production&#45;&gt;Rex:Spruce_piece -->
<g id="edge70" class="edge"><title>Rex:Carolan_Guitar_production&#45;&gt;Rex:Spruce_piece</title>
<path fill="none" stroke="black" d="M1097.29,-703.151C1125.17,-711.467 1160.2,-721.134 1192,-727.63 1264.73,-742.487 1348.72,-752.926 1408.61,-759.241"/>
<polygon fill="black" stroke="black" points="1408.45,-762.743 1418.76,-760.296 1409.18,-755.781 1408.45,-762.743"/>
<text text-anchor="middle" x="1265" y="-753.43" font-family="Times,serif" font-size="14.00">prov:used</text>
</g>
<!-- B_:genid2&#45;&gt;Rprov:Association -->
<g id="edge50" class="edge"><title>B_:genid2&#45;&gt;Rprov:Association</title>
<path fill="none" stroke="black" d="M1506.16,-514.423C1533.16,-524.799 1587.85,-548.867 1622,-584.63 1684.93,-650.529 1685.68,-680.904 1716,-766.83 1729.26,-804.393 1705.14,-827.176 1734,-854.63 1759.07,-878.475 1795.86,-886.631 1829.33,-888.259"/>
<polygon fill="black" stroke="black" points="1829.49,-891.765 1839.59,-888.564 1829.7,-884.768 1829.49,-891.765"/>
<text text-anchor="middle" x="1678" y="-769.43" font-family="Times,serif" font-size="14.00">rdf:type</text>
</g>
<!-- B_:genid2&#45;&gt;Rex:Nick_Perez -->
<g id="edge52" class="edge"><title>B_:genid2&#45;&gt;Rex:Nick_Perez</title>
<path fill="none" stroke="black" d="M1507.25,-508.589C1561.64,-508.459 1731.95,-508.054 1832.85,-507.813"/>
<polygon fill="black" stroke="black" points="1833,-511.313 1842.99,-507.789 1832.98,-504.313 1833,-511.313"/>
<text text-anchor="middle" x="1678" y="-511.43" font-family="Times,serif" font-size="14.00">prov:agent</text>
</g>
<!-- Rex:Luthier -->
<g id="node53" class="node"><title>Rex:Luthier</title>
<ellipse fill="none" stroke="blue" cx="2473" cy="-211.63" rx="51.0173" ry="18"/>
<text text-anchor="middle" x="2473" y="-206.03" font-family="Times,serif" font-size="14.00">ex:Luthier</text>
</g>
<!-- B_:genid2&#45;&gt;Rex:Luthier -->
<g id="edge54" class="edge"><title>B_:genid2&#45;&gt;Rex:Luthier</title>
<path fill="none" stroke="black" d="M1507.37,-510.196C1535.15,-511.704 1589.7,-510.427 1622,-481.63 1641.2,-464.513 1625.04,-447.551 1640,-426.63 1670.42,-384.085 1688.38,-381.416 1734,-355.83 1889.08,-268.848 1931.34,-241.93 2106,-208.63 2213.39,-188.156 2341.73,-196.555 2414.37,-204.266"/>
<polygon fill="black" stroke="black" points="2414.35,-207.785 2424.67,-205.396 2415.11,-200.827 2414.35,-207.785"/>
<text text-anchor="middle" x="1911" y="-359.43" font-family="Times,serif" font-size="14.00">prov:hadRole</text>
</g>
<!-- Rex:Dreadnought_Guitar -->
<g id="node55" class="node"><title>Rex:Dreadnought_Guitar</title>
<ellipse fill="none" stroke="blue" cx="1911" cy="-453.63" rx="102.999" ry="18"/>
<text text-anchor="middle" x="1911" y="-448.03" font-family="Times,serif" font-size="14.00">ex:Dreadnought_Guitar</text>
</g>
<!-- B_:genid2&#45;&gt;Rex:Dreadnought_Guitar -->
<g id="edge56" class="edge"><title>B_:genid2&#45;&gt;Rex:Dreadnought_Guitar</title>
<path fill="none" stroke="black" d="M1507.09,-506.193C1534.92,-502.24 1591.78,-494.226 1640,-487.83 1698.62,-480.053 1764.46,-471.706 1816.44,-465.205"/>
<polygon fill="black" stroke="black" points="1817.16,-468.642 1826.65,-463.93 1816.29,-461.696 1817.16,-468.642"/>
<text text-anchor="middle" x="1678" y="-491.43" font-family="Times,serif" font-size="14.00">prov:hadPlan</text>
</g>
<!-- Rhttp://carolanguitar.com/2014/08/11/dread/ -->
<g id="node57" class="node"><title>Rhttp://carolanguitar.com/2014/08/11/dread/</title>
<ellipse fill="none" stroke="blue" cx="1911" cy="-399.63" rx="176.889" ry="18"/>
<text text-anchor="middle" x="1911" y="-394.03" font-family="Times,serif" font-size="14.00">http://carolanguitar.com/2014/08/11/dread/</text>
</g>
<!-- B_:genid2&#45;&gt;Rhttp://carolanguitar.com/2014/08/11/dread/ -->
<g id="edge58" class="edge"><title>B_:genid2&#45;&gt;Rhttp://carolanguitar.com/2014/08/11/dread/</title>
<path fill="none" stroke="black" d="M1507.25,-508.864C1533.9,-508.446 1585.79,-504.459 1622,-481.63 1633.22,-474.557 1629.22,-465.556 1640,-457.83 1675.78,-432.186 1691.2,-436.937 1734,-426.63 1751.83,-422.335 1770.85,-418.58 1789.55,-415.346"/>
<polygon fill="black" stroke="black" points="1790.32,-418.767 1799.6,-413.653 1789.16,-411.864 1790.32,-418.767"/>
<text text-anchor="middle" x="1678" y="-461.43" font-family="Times,serif" font-size="14.00">rdfs:seeAlso</text>
</g>
<!-- Rex:Nick_Perez&#45;&gt;Rex:Guitarist -->
<g id="edge76" class="edge"><title>Rex:Nick_Perez&#45;&gt;Rex:Guitarist</title>
<path fill="none" stroke="black" d="M1972.75,-515.164C2011.04,-516.306 2058.63,-510.492 2088,-480.63 2129.46,-438.481 2061.46,-387.704 2106,-348.83 2117.23,-339.033 2307.49,-357.866 2409.13,-368.717"/>
<polygon fill="black" stroke="black" points="2408.97,-372.219 2419.28,-369.806 2409.71,-365.259 2408.97,-372.219"/>
<text text-anchor="middle" x="2141" y="-352.43" font-family="Times,serif" font-size="14.00">rdf:type</text>
</g>
<!-- Rex:Nick_Perez&#45;&gt;Rprov:Person -->
<g id="edge78" class="edge"><title>Rex:Nick_Perez&#45;&gt;Rprov:Person</title>
<path fill="none" stroke="black" d="M1972.32,-499.723C2010.93,-498.298 2059.04,-503.936 2088,-534.63 2117.25,-565.641 2076.16,-695.18 2106,-725.63 2126.56,-746.608 2306.06,-759.105 2405.82,-764.491"/>
<polygon fill="black" stroke="black" points="2405.63,-767.986 2415.8,-765.021 2406,-760.996 2405.63,-767.986"/>
<text text-anchor="middle" x="2141" y="-746.43" font-family="Times,serif" font-size="14.00">rdf:type</text>
</g>
<!-- Rex:Nick_Perez&#45;&gt;Rprov:Agent -->
<g id="edge80" class="edge"><title>Rex:Nick_Perez&#45;&gt;Rprov:Agent</title>
<path fill="none" stroke="black" d="M1974.62,-501.187C2011.95,-500.874 2057.79,-507.195 2088,-534.63 2112.1,-556.517 2082.07,-583.555 2106,-605.63 2117.18,-615.941 2310.87,-644.756 2411.84,-659.18"/>
<polygon fill="black" stroke="black" points="2411.51,-662.669 2421.9,-660.614 2412.5,-655.739 2411.51,-662.669"/>
<text text-anchor="middle" x="2141" y="-625.43" font-family="Times,serif" font-size="14.00">rdf:type</text>
</g>
<!-- Rex:Nick_Perez&#45;&gt;Rfoaf:Person -->
<g id="edge82" class="edge"><title>Rex:Nick_Perez&#45;&gt;Rfoaf:Person</title>
<path fill="none" stroke="black" d="M1976.79,-512.257C2085,-519.987 2301.22,-535.431 2408.55,-543.097"/>
<polygon fill="black" stroke="black" points="2408.36,-546.593 2418.59,-543.814 2408.86,-539.611 2408.36,-546.593"/>
<text text-anchor="middle" x="2141" y="-529.43" font-family="Times,serif" font-size="14.00">rdf:type</text>
</g>
<!-- Rex:Nick_Perez&#45;&gt;Rex:Luthier -->
<g id="edge74" class="edge"><title>Rex:Nick_Perez&#45;&gt;Rex:Luthier</title>
<path fill="none" stroke="black" d="M1972.1,-515.708C2010.86,-517.271 2059.25,-511.724 2088,-480.63 2124.73,-440.906 2067.69,-276.038 2106,-237.83 2147.73,-196.201 2320.4,-201.067 2412.88,-206.961"/>
<polygon fill="black" stroke="black" points="2412.72,-210.458 2422.93,-207.625 2413.18,-203.473 2412.72,-210.458"/>
<text text-anchor="middle" x="2141" y="-241.43" font-family="Times,serif" font-size="14.00">rdf:type</text>
</g>
<!-- LNick Perez -->
<g id="node75" class="node"><title>LNick Perez</title>
<polygon fill="none" stroke="black" points="2434.1,-302.63 2434.1,-338.63 2511.9,-338.63 2511.9,-302.63 2434.1,-302.63"/>
<text text-anchor="middle" x="2473" y="-315.13" font-family="Times,serif" font-size="14.00">Nick Perez</text>
</g>
<!-- Rex:Nick_Perez&#45;&gt;LNick Perez -->
<g id="edge84" class="edge"><title>Rex:Nick_Perez&#45;&gt;LNick Perez</title>
<path fill="none" stroke="black" d="M1972.53,-515.344C2010.97,-516.623 2058.82,-510.895 2088,-480.63 2136.08,-430.768 2054.6,-372.257 2106,-325.83 2151.36,-284.855 2335.24,-302.528 2423.83,-313.842"/>
<polygon fill="black" stroke="black" points="2423.52,-317.332 2433.89,-315.152 2424.43,-310.39 2423.52,-317.332"/>
<text text-anchor="middle" x="2141" y="-329.43" font-family="Times,serif" font-size="14.00">foaf:name</text>
</g>
<!-- Rhttp://www.nperezguitars.com -->
<g id="node77" class="node"><title>Rhttp://www.nperezguitars.com</title>
<ellipse fill="none" stroke="blue" cx="2473" cy="-265.63" rx="127.745" ry="18"/>
<text text-anchor="middle" x="2473" y="-260.03" font-family="Times,serif" font-size="14.00">http://www.nperezguitars.com</text>
</g>
<!-- Rex:Nick_Perez&#45;&gt;Rhttp://www.nperezguitars.com -->
<g id="edge86" class="edge"><title>Rex:Nick_Perez&#45;&gt;Rhttp://www.nperezguitars.com</title>
<path fill="none" stroke="black" d="M1972.35,-515.567C2010.98,-517.005 2059.09,-511.37 2088,-480.63 2118.24,-448.476 2074.11,-313.349 2106,-282.83 2140.7,-249.622 2261.8,-249.604 2355.3,-255.177"/>
<polygon fill="black" stroke="black" points="2355.21,-258.678 2365.41,-255.807 2355.64,-251.691 2355.21,-258.678"/>
<text text-anchor="middle" x="2141" y="-286.43" font-family="Times,serif" font-size="14.00">rdfs:seeAlso</text>
</g>
<!-- Rex:Luthier&#45;&gt;Rprov:Role -->
<g id="edge106" class="edge"><title>Rex:Luthier&#45;&gt;Rprov:Role</title>
<path fill="none" stroke="black" d="M2515.12,-201.344C2576.05,-188.83 2689.78,-176.386 2752,-238.63 2781.36,-267.998 2752.82,-386.824 2770,-424.63 2784.46,-456.458 2806.24,-451.716 2824,-481.83 2859.2,-541.515 2878.14,-621.835 2886.2,-663.664"/>
<polygon fill="black" stroke="black" points="2882.79,-664.482 2888.06,-673.674 2889.67,-663.202 2882.79,-664.482"/>
<text text-anchor="middle" x="2797" y="-485.43" font-family="Times,serif" font-size="14.00">rdf:type</text>
</g>
<!-- Rex:Luthier&#45;&gt;Rrdfs:Class -->
<g id="edge108" class="edge"><title>Rex:Luthier&#45;&gt;Rrdfs:Class</title>
<path fill="none" stroke="black" d="M2520.77,-205.06C2579,-199.25 2679.62,-197.196 2752,-238.63 2799.28,-265.693 2797.46,-290.255 2824,-337.83 2834.25,-356.209 2828.11,-365.818 2842,-381.63 2844.76,-384.776 2847.97,-387.653 2851.4,-390.262"/>
<polygon fill="black" stroke="black" points="2849.44,-393.161 2859.68,-395.865 2853.36,-387.363 2849.44,-393.161"/>
<text text-anchor="middle" x="2797" y="-341.43" font-family="Times,serif" font-size="14.00">rdf:type</text>
</g>
<!-- LGuitar maker -->
<g id="node96" class="node"><title>LGuitar maker</title>
<polygon fill="none" stroke="black" points="2846.88,-193.63 2846.88,-229.63 2937.12,-229.63 2937.12,-193.63 2846.88,-193.63"/>
<text text-anchor="middle" x="2892" y="-206.13" font-family="Times,serif" font-size="14.00">Guitar maker</text>
</g>
<!-- Rex:Luthier&#45;&gt;LGuitar maker -->
<g id="edge110" class="edge"><title>Rex:Luthier&#45;&gt;LGuitar maker</title>
<path fill="none" stroke="black" d="M2524.3,-211.63C2603.24,-211.63 2755.57,-211.63 2836.84,-211.63"/>
<polygon fill="black" stroke="black" points="2836.86,-215.13 2846.86,-211.63 2836.86,-208.13 2836.86,-215.13"/>
<text text-anchor="middle" x="2797" y="-214.43" font-family="Times,serif" font-size="14.00">rdfs:label</text>
</g>
<!-- Rex:Steve_Benford&#45;&gt;Rex:Guitarist -->
<g id="edge90" class="edge"><title>Rex:Steve_Benford&#45;&gt;Rex:Guitarist</title>
<path fill="none" stroke="black" d="M1921.21,-809.471C1945.12,-764.177 2013.84,-645.5 2106,-584.83 2132.95,-567.092 2155.06,-590.167 2176,-565.63 2199.66,-537.911 2168.06,-428.228 2194,-402.63 2252.28,-345.116 2354.62,-351.725 2417.54,-362.89"/>
<polygon fill="black" stroke="black" points="2417.2,-366.387 2427.67,-364.787 2418.49,-359.506 2417.2,-366.387"/>
<text text-anchor="middle" x="2141" y="-588.43" font-family="Times,serif" font-size="14.00">rdf:type</text>
</g>
<!-- Rex:Steve_Benford&#45;&gt;Rprov:Person -->
<g id="edge92" class="edge"><title>Rex:Steve_Benford&#45;&gt;Rprov:Person</title>
<path fill="none" stroke="black" d="M1983.3,-835.836C2019.92,-839.646 2065.28,-843.745 2106,-845.63 2137.08,-847.068 2150.6,-863.599 2176,-845.63 2195.62,-831.747 2175.07,-809.446 2194,-794.63 2256.44,-745.748 2352.56,-748.301 2413.84,-756.522"/>
<polygon fill="black" stroke="black" points="2413.72,-760.04 2424.11,-757.997 2414.71,-753.111 2413.72,-760.04"/>
<text text-anchor="middle" x="2141" y="-856.43" font-family="Times,serif" font-size="14.00">rdf:type</text>
</g>
<!-- Rex:Steve_Benford&#45;&gt;Rprov:Agent -->
<g id="edge94" class="edge"><title>Rex:Steve_Benford&#45;&gt;Rprov:Agent</title>
<path fill="none" stroke="black" d="M1991.26,-825.559C2063.8,-822.937 2161.94,-817.275 2176,-805.63 2199.08,-786.505 2172.66,-761.684 2194,-740.63 2250.78,-684.605 2345.04,-670.083 2407.84,-667.078"/>
<polygon fill="black" stroke="black" points="2408.17,-670.568 2418.02,-666.678 2407.89,-663.573 2408.17,-670.568"/>
<text text-anchor="middle" x="2141" y="-821.43" font-family="Times,serif" font-size="14.00">rdf:type</text>
</g>
<!-- Rex:Steve_Benford&#45;&gt;Rfoaf:Person -->
<g id="edge96" class="edge"><title>Rex:Steve_Benford&#45;&gt;Rfoaf:Person</title>
<path fill="none" stroke="black" d="M1935.56,-810.453C1971.16,-785.031 2041.39,-736.94 2106,-704.83 2135.75,-690.045 2151.54,-701.109 2176,-678.63 2189.76,-665.983 2180.02,-653.031 2194,-640.63 2254.86,-586.644 2348.11,-563.817 2409.57,-554.285"/>
<polygon fill="black" stroke="black" points="2410.14,-557.738 2419.52,-552.814 2409.12,-550.813 2410.14,-557.738"/>
<text text-anchor="middle" x="2141" y="-707.43" font-family="Times,serif" font-size="14.00">rdf:type</text>
</g>
<!-- Rex:Researcher -->
<g id="node79" class="node"><title>Rex:Researcher</title>
<ellipse fill="none" stroke="blue" cx="2473" cy="-821.63" rx="65.95" ry="18"/>
<text text-anchor="middle" x="2473" y="-816.03" font-family="Times,serif" font-size="14.00">ex:Researcher</text>
</g>
<!-- Rex:Steve_Benford&#45;&gt;Rex:Researcher -->
<g id="edge88" class="edge"><title>Rex:Steve_Benford&#45;&gt;Rex:Researcher</title>
<path fill="none" stroke="black" d="M1991.47,-825.3C2023.79,-827.863 2060.03,-835.559 2088,-854.63 2101.16,-863.605 2092.19,-877.681 2106,-885.63 2158.89,-916.077 2333.53,-866.557 2421.06,-838.644"/>
<polygon fill="black" stroke="black" points="2422.33,-841.912 2430.78,-835.519 2420.19,-835.248 2422.33,-841.912"/>
<text text-anchor="middle" x="2141" y="-897.43" font-family="Times,serif" font-size="14.00">rdf:type</text>
</g>
<!-- LSteve Benford -->
<g id="node85" class="node"><title>LSteve Benford</title>
<polygon fill="none" stroke="black" points="2424.76,-906.63 2424.76,-942.63 2521.24,-942.63 2521.24,-906.63 2424.76,-906.63"/>
<text text-anchor="middle" x="2473" y="-919.13" font-family="Times,serif" font-size="14.00">Steve Benford</text>
</g>
<!-- Rex:Steve_Benford&#45;&gt;LSteve Benford -->
<g id="edge98" class="edge"><title>Rex:Steve_Benford&#45;&gt;LSteve Benford</title>
<path fill="none" stroke="black" d="M1987.62,-821.892C2021.93,-823.282 2060.82,-830.997 2088,-854.63 2109.01,-872.899 2083.89,-897.707 2106,-914.63 2152.78,-950.438 2323.69,-939.635 2414.46,-930.946"/>
<polygon fill="black" stroke="black" points="2414.97,-934.412 2424.58,-929.953 2414.29,-927.446 2414.97,-934.412"/>
<text text-anchor="middle" x="2141" y="-937.43" font-family="Times,serif" font-size="14.00">foaf:name</text>
</g>
<!-- Rhttps://www.nottingham.ac.uk/computerscience/people/steve.benford -->
<g id="node87" class="node"><title>Rhttps://www.nottingham.ac.uk/computerscience/people/steve.benford</title>
<ellipse fill="none" stroke="blue" cx="2473" cy="-979.63" rx="278.666" ry="18"/>
<text text-anchor="middle" x="2473" y="-974.03" font-family="Times,serif" font-size="14.00">https://www.nottingham.ac.uk/computerscience/people/steve.benford</text>
</g>
<!-- Rex:Steve_Benford&#45;&gt;Rhttps://www.nottingham.ac.uk/computerscience/people/steve.benford -->
<g id="edge100" class="edge"><title>Rex:Steve_Benford&#45;&gt;Rhttps://www.nottingham.ac.uk/computerscience/people/steve.benford</title>
<path fill="none" stroke="black" d="M1985.3,-820.465C2020.76,-821.127 2061.32,-828.633 2088,-854.63 2120.34,-886.146 2072.36,-924.499 2106,-954.63 2121.08,-968.136 2151.24,-976.477 2188.06,-981.383"/>
<polygon fill="black" stroke="black" points="2187.73,-984.869 2198.08,-982.618 2188.58,-977.922 2187.73,-984.869"/>
<text text-anchor="middle" x="2141" y="-981.43" font-family="Times,serif" font-size="14.00">rdfs:seeAlso</text>
</g>
<!-- Rex:Researcher&#45;&gt;Rprov:Role -->
<g id="edge112" class="edge"><title>Rex:Researcher&#45;&gt;Rprov:Role</title>
<path fill="none" stroke="black" d="M2537.76,-824.953C2595.58,-825.782 2682.19,-821.487 2752,-794.63 2797.47,-777.135 2841.13,-740.454 2867.01,-715.927"/>
<polygon fill="black" stroke="black" points="2869.69,-718.203 2874.46,-708.74 2864.83,-713.167 2869.69,-718.203"/>
<text text-anchor="middle" x="2797" y="-787.43" font-family="Times,serif" font-size="14.00">rdf:type</text>
</g>
<!-- Rex:Researcher&#45;&gt;Rrdfs:Class -->
<g id="edge114" class="edge"><title>Rex:Researcher&#45;&gt;Rrdfs:Class</title>
<path fill="none" stroke="black" d="M2526.06,-832.382C2587.29,-841.817 2688.6,-846.941 2752,-794.63 2773.74,-776.693 2759.95,-760.157 2770,-733.83 2790.03,-681.38 2803.42,-671.866 2824,-619.63 2849.23,-555.594 2872.08,-477.889 2883.44,-437.324"/>
<polygon fill="black" stroke="black" points="2886.83,-438.181 2886.14,-427.609 2880.09,-436.307 2886.83,-438.181"/>
<text text-anchor="middle" x="2797" y="-736.43" font-family="Times,serif" font-size="14.00">rdf:type</text>
</g>
<!-- LResearcher -->
<g id="node100" class="node"><title>LResearcher</title>
<polygon fill="none" stroke="black" points="2852.91,-803.63 2852.91,-839.63 2931.09,-839.63 2931.09,-803.63 2852.91,-803.63"/>
<text text-anchor="middle" x="2892" y="-816.13" font-family="Times,serif" font-size="14.00">Researcher</text>
</g>
<!-- Rex:Researcher&#45;&gt;LResearcher -->
<g id="edge116" class="edge"><title>Rex:Researcher&#45;&gt;LResearcher</title>
<path fill="none" stroke="black" d="M2539.16,-821.63C2623.28,-821.63 2767.73,-821.63 2842.69,-821.63"/>
<polygon fill="black" stroke="black" points="2842.8,-825.13 2852.8,-821.63 2842.8,-818.13 2842.8,-825.13"/>
<text text-anchor="middle" x="2797" y="-824.43" font-family="Times,serif" font-size="14.00">rdfs:label</text>
</g>
</g>
</svg>
