<?xml version="1.0" encoding="UTF-8" standalone="no"?>
<!DOCTYPE svg PUBLIC "-//W3C//DTD SVG 1.0//EN"
 "http://www.w3.org/TR/2001/REC-SVG-20010904/DTD/svg10.dtd" [
 <!ATTLIST svg xmlns:xlink CDATA #FIXED "http://www.w3.org/1999/xlink">
]>
<!-- Generated by Graphviz version 2.20.2 (Tue Feb &#160;9 23:19:36 UTC 2010)
     For user: (root) root -->
<!-- Title: d1e269 Pages: 1 -->
<svg width="2072pt" height="461pt"
 viewBox="0.00 0.00 2072.00 461.00" xmlns="http://www.w3.org/2000/svg" xmlns:xlink="http://www.w3.org/1999/xlink">
<g id="graph0" class="graph" transform="scale(1 1) rotate(0) translate(4 457)">
<title>d1e269</title>
<polygon style="fill:white;stroke:white;" points="-4,4 -4,-457 2068,-457 2068,4 -4,4"/>
<text text-anchor="middle" x="1032" y="-7.9" style="font-family:Times New Roman;font-size:14.00px;">Powered by http://rhizomik.net</text>
<!-- http://carolanguitar.com -->
<g id="node1" class="node"><title>http://carolanguitar.com</title>
<a xlink:href="http://carolanguitar.com" xlink:title="http://carolanguitar.com">
<polygon style="fill:none;stroke:black;" points="967,-242.5 837,-242.5 837,-221.5 967,-221.5 967,-242.5"/>
<text text-anchor="middle" x="902" y="-229.5" style="font-family:Times New Roman;font-size:10.00px;fill:blue;">http://carolanguitar.com</text>
</a>
</g>
<!-- ex:Spruce_piece -->
<g id="node2" class="node"><title>ex:Spruce_piece</title>
<a xlink:href="ex:Spruce_piece" xlink:title="ex:Spruce_piece">
<polygon style="fill:none;stroke:black;" points="1414,-143.5 1210,-143.5 1210,-122.5 1414,-122.5 1414,-143.5"/>
<text text-anchor="middle" x="1312" y="-130.5" style="font-family:Times New Roman;font-size:10.00px;fill:blue;">ex:Spruce_piece</text>
</a>
</g>
<!-- ex:Coquette_performance -->
<g id="node3" class="node"><title>ex:Coquette_performance</title>
<a xlink:href="ex:Coquette_performance" xlink:title="prov:Activity, ex:Performance:\nex:Coquette_performance">
<polygon style="fill:none;stroke:black;" points="250,-341 9.9476e-14,-341 0,-307 250,-307 250,-341"/>
<text text-anchor="middle" x="125" y="-328" style="font-family:Times New Roman;font-size:10.00px;fill:blue;">prov:Activity, ex:Performance:</text>
<text text-anchor="middle" x="125" y="-315" style="font-family:Times New Roman;font-size:10.00px;fill:blue;">ex:Coquette_performance</text>
</a>
</g>
<!-- http://carolanguitar.com/2014/11/10/31&#45;coquette/ -->
<g id="node5" class="node"><title>http://carolanguitar.com/2014/11/10/31&#45;coquette/</title>
<a xlink:href="http://carolanguitar.com/2014/11/10/31-coquette/" xlink:title="http://carolanguitar.com/2014/11/10/31&#45;coquette/">
<polygon style="fill:none;stroke:black;" points="642,-412.5 390,-412.5 390,-391.5 642,-391.5 642,-412.5"/>
<text text-anchor="middle" x="516" y="-399.5" style="font-family:Times New Roman;font-size:10.00px;fill:blue;">http://carolanguitar.com/2014/11/10/31&#45;coquette/</text>
</a>
</g>
<!-- ex:Coquette_performance&#45;&gt;http://carolanguitar.com/2014/11/10/31&#45;coquette/ -->
<g id="edge2" class="edge"><title>ex:Coquette_performance&#45;&gt;http://carolanguitar.com/2014/11/10/31&#45;coquette/</title>
<path style="fill:none;stroke:blue;" d="M184,-341C208,-348 236,-355 261,-361 317,-373 381,-384 431,-391"/>
<polygon style="fill:blue;stroke:blue;" points="430.701,-394.488 441,-392 431.398,-387.522 430.701,-394.488"/>
<text text-anchor="middle" x="320" y="-383.5" style="font-family:Times New Roman;font-size:10.00px;">rdfs:seeAlso</text>
</g>
<!-- A0 -->
<g id="node7" class="node"><title>A0</title>
<polygon style="fill:none;stroke:black;" points="564,-370 468,-370 468,-336 564,-336 564,-370"/>
<text text-anchor="middle" x="516" y="-357" style="font-family:Times New Roman;font-size:10.00px;">prov:Association:</text>
<text text-anchor="middle" x="516" y="-344" style="font-family:Times New Roman;font-size:10.00px;"> </text>
</g>
<!-- ex:Coquette_performance&#45;&gt;A0 -->
<g id="edge4" class="edge"><title>ex:Coquette_performance&#45;&gt;A0</title>
<path style="fill:none;stroke:blue;" d="M250,-333C320,-339 402,-344 457,-348"/>
<polygon style="fill:blue;stroke:blue;" points="456.701,-351.488 467,-349 457.398,-344.522 456.701,-351.488"/>
<text text-anchor="middle" x="320" y="-346.5" style="font-family:Times New Roman;font-size:10.00px;">prov:qualifiedAsscoiation</text>
</g>
<!-- ex:Remi_Harris -->
<g id="node9" class="node"><title>ex:Remi_Harris</title>
<a xlink:href="ex:Remi_Harris" xlink:title="Guitaristprov:Personfoaf:Person, prov:Agent:\nex:Remi_Harris">
<polygon style="fill:none;stroke:black;" points="1016,-341 788,-341 788,-307 1016,-307 1016,-341"/>
<text text-anchor="middle" x="902" y="-328" style="font-family:Times New Roman;font-size:10.00px;fill:blue;">Guitaristprov:Personfoaf:Person, prov:Agent:</text>
<text text-anchor="middle" x="902" y="-315" style="font-family:Times New Roman;font-size:10.00px;fill:blue;">ex:Remi_Harris</text>
</a>
</g>
<!-- ex:Coquette_performance&#45;&gt;ex:Remi_Harris -->
<g id="edge6" class="edge"><title>ex:Coquette_performance&#45;&gt;ex:Remi_Harris</title>
<path style="fill:none;stroke:blue;" d="M250,-317C294,-315 345,-313 390,-312 502,-310 531,-310 642,-312 686,-313 735,-316 778,-318"/>
<polygon style="fill:blue;stroke:blue;" points="778,-321.5 788,-318 778,-314.5 778,-321.5"/>
<text text-anchor="middle" x="516" y="-316.5" style="font-family:Times New Roman;font-size:10.00px;">prov:wasAssociatedWith</text>
</g>
<!-- ex:Carolan_Guitar -->
<g id="node11" class="node"><title>ex:Carolan_Guitar</title>
<a xlink:href="ex:Carolan_Guitar" xlink:title="ex:Musical_instrument, prov:Entity:\nex:Carolan_Guitar">
<polygon style="fill:none;stroke:black;" points="621,-249 411,-249 411,-215 621,-215 621,-249"/>
<text text-anchor="middle" x="516" y="-236" style="font-family:Times New Roman;font-size:10.00px;fill:blue;">ex:Musical_instrument, prov:Entity:</text>
<text text-anchor="middle" x="516" y="-223" style="font-family:Times New Roman;font-size:10.00px;fill:blue;">ex:Carolan_Guitar</text>
</a>
</g>
<!-- ex:Coquette_performance&#45;&gt;ex:Carolan_Guitar -->
<g id="edge8" class="edge"><title>ex:Coquette_performance&#45;&gt;ex:Carolan_Guitar</title>
<path style="fill:none;stroke:blue;" d="M163,-307C190,-295 227,-280 261,-271 307,-259 356,-250 401,-244"/>
<polygon style="fill:blue;stroke:blue;" points="401.398,-247.478 411,-243 400.701,-240.512 401.398,-247.478"/>
<text text-anchor="middle" x="320" y="-275.5" style="font-family:Times New Roman;font-size:10.00px;">prov:Used</text>
</g>
<!-- A0&#45;&gt;ex:Remi_Harris -->
<g id="edge14" class="edge"><title>A0&#45;&gt;ex:Remi_Harris</title>
<path style="fill:none;stroke:blue;" d="M565,-349C618,-345 706,-339 778,-334"/>
<polygon style="fill:blue;stroke:blue;" points="778.398,-337.478 788,-333 777.701,-330.512 778.398,-337.478"/>
<text text-anchor="middle" x="705" y="-346.5" style="font-family:Times New Roman;font-size:10.00px;">prov:agent</text>
</g>
<!-- ex:Coquette_song -->
<g id="node13" class="node"><title>ex:Coquette_song</title>
<a xlink:href="ex:Coquette_song" xlink:title="prov:Entity, prov:Plan:\nCoquette">
<polygon style="fill:none;stroke:black;" points="961,-453 843,-453 843,-419 961,-419 961,-453"/>
<text text-anchor="middle" x="902" y="-440" style="font-family:Times New Roman;font-size:10.00px;fill:blue;">prov:Entity, prov:Plan:</text>
<text text-anchor="middle" x="902" y="-427" style="font-family:Times New Roman;font-size:10.00px;fill:blue;">Coquette</text>
</a>
</g>
<!-- A0&#45;&gt;ex:Coquette_song -->
<g id="edge10" class="edge"><title>A0&#45;&gt;ex:Coquette_song</title>
<path style="fill:none;stroke:blue;" d="M565,-361C588,-366 617,-372 642,-381 648,-382 648,-384 653,-386 712,-405 781,-418 832,-426"/>
<polygon style="fill:blue;stroke:blue;" points="831.508,-429.471 842,-428 832.881,-422.607 831.508,-429.471"/>
<text text-anchor="middle" x="705" y="-413.5" style="font-family:Times New Roman;font-size:10.00px;">prov:hadPlan</text>
</g>
<!-- ex:Performer -->
<g id="node15" class="node"><title>ex:Performer</title>
<a xlink:href="ex:Performer" xlink:title="prov:Role:\nPlayer in a music performance">
<polygon style="fill:none;stroke:black;" points="983,-397 821,-397 821,-363 983,-363 983,-397"/>
<text text-anchor="middle" x="902" y="-384" style="font-family:Times New Roman;font-size:10.00px;fill:blue;">prov:Role:</text>
<text text-anchor="middle" x="902" y="-371" style="font-family:Times New Roman;font-size:10.00px;fill:blue;">Player in a music performance</text>
</a>
</g>
<!-- A0&#45;&gt;ex:Performer -->
<g id="edge12" class="edge"><title>A0&#45;&gt;ex:Performer</title>
<path style="fill:none;stroke:blue;" d="M565,-356C626,-361 734,-368 811,-373"/>
<polygon style="fill:blue;stroke:blue;" points="810.701,-376.488 821,-374 811.398,-369.522 810.701,-376.488"/>
<text text-anchor="middle" x="705" y="-371.5" style="font-family:Times New Roman;font-size:10.00px;">prov:hadRole</text>
</g>
<!-- http://www.remiharris.co.uk -->
<g id="node25" class="node"><title>http://www.remiharris.co.uk</title>
<a xlink:href="http://www.remiharris.co.uk" xlink:title="http://www.remiharris.co.uk">
<polygon style="fill:none;stroke:black;" points="1384,-384.5 1240,-384.5 1240,-363.5 1384,-363.5 1384,-384.5"/>
<text text-anchor="middle" x="1312" y="-371.5" style="font-family:Times New Roman;font-size:10.00px;fill:blue;">http://www.remiharris.co.uk</text>
</a>
</g>
<!-- ex:Remi_Harris&#45;&gt;http://www.remiharris.co.uk -->
<g id="edge46" class="edge"><title>ex:Remi_Harris&#45;&gt;http://www.remiharris.co.uk</title>
<path style="fill:none;stroke:blue;" d="M1016,-338C1027,-340 1037,-341 1047,-342 1108,-350 1178,-358 1230,-364"/>
<polygon style="fill:blue;stroke:blue;" points="1229.7,-367.488 1240,-365 1230.4,-360.522 1229.7,-367.488"/>
<text text-anchor="middle" x="1106" y="-358.5" style="font-family:Times New Roman;font-size:10.00px;">rdfs:seeAlso</text>
</g>
<!-- &quot;Remi Harris&quot; -->
<g id="node47" class="node"><title>&quot;Remi Harris&quot;</title>
<text text-anchor="middle" x="1312" y="-321.5" style="font-family:Times New Roman;font-size:10.00px;">&quot;Remi Harris&quot;</text>
</g>
<!-- ex:Remi_Harris&#45;&gt;&quot;Remi Harris&quot; -->
<g id="edge48" class="edge"><title>ex:Remi_Harris&#45;&gt;&quot;Remi Harris&quot;</title>
<path style="fill:none;stroke:blue;" d="M1016,-324C1097,-324 1202,-324 1263,-324"/>
<polygon style="fill:blue;stroke:blue;" points="1263,-327.5 1273,-324 1263,-320.5 1263,-327.5"/>
<text text-anchor="middle" x="1106" y="-328.5" style="font-family:Times New Roman;font-size:10.00px;">foaf:name</text>
</g>
<!-- ex:Carolan_Guitar&#45;&gt;http://carolanguitar.com -->
<g id="edge42" class="edge"><title>ex:Carolan_Guitar&#45;&gt;http://carolanguitar.com</title>
<path style="fill:none;stroke:blue;" d="M621,-232C686,-232 768,-232 826,-232"/>
<polygon style="fill:blue;stroke:blue;" points="826,-235.5 836,-232 826,-228.5 826,-235.5"/>
<text text-anchor="middle" x="705" y="-236.5" style="font-family:Times New Roman;font-size:10.00px;">rdfs:seeAlso</text>
</g>
<!-- ex:Carolan_Guitar_production -->
<g id="node35" class="node"><title>ex:Carolan_Guitar_production</title>
<a xlink:href="ex:Carolan_Guitar_production" xlink:title="prov:Activity:\nex:Carolan_Guitar_production">
<polygon style="fill:none;stroke:black;" points="1035,-192 769,-192 769,-158 1035,-158 1035,-192"/>
<text text-anchor="middle" x="902" y="-179" style="font-family:Times New Roman;font-size:10.00px;fill:blue;">prov:Activity:</text>
<text text-anchor="middle" x="902" y="-166" style="font-family:Times New Roman;font-size:10.00px;fill:blue;">ex:Carolan_Guitar_production</text>
</a>
</g>
<!-- ex:Carolan_Guitar&#45;&gt;ex:Carolan_Guitar_production -->
<g id="edge44" class="edge"><title>ex:Carolan_Guitar&#45;&gt;ex:Carolan_Guitar_production</title>
<path style="fill:none;stroke:blue;" d="M621,-216C670,-209 727,-201 778,-194"/>
<polygon style="fill:blue;stroke:blue;" points="778.881,-197.393 788,-192 777.508,-190.529 778.881,-197.393"/>
<text text-anchor="middle" x="705" y="-217.5" style="font-family:Times New Roman;font-size:10.00px;">prov:wasGeneratedBy</text>
</g>
<!-- https://en.wikipedia.org/wiki/Coquette_(song) -->
<g id="node23" class="node"><title>https://en.wikipedia.org/wiki/Coquette_(song)</title>
<a xlink:href="https://en.wikipedia.org/wiki/Coquette_(song)" xlink:title="https://en.wikipedia.org/wiki/Coquette_(song)">
<polygon style="fill:none;stroke:black;" points="1426,-446.5 1198,-446.5 1198,-425.5 1426,-425.5 1426,-446.5"/>
<text text-anchor="middle" x="1312" y="-433.5" style="font-family:Times New Roman;font-size:10.00px;fill:blue;">https://en.wikipedia.org/wiki/Coquette_(song)</text>
</a>
</g>
<!-- ex:Coquette_song&#45;&gt;https://en.wikipedia.org/wiki/Coquette_(song) -->
<g id="edge20" class="edge"><title>ex:Coquette_song&#45;&gt;https://en.wikipedia.org/wiki/Coquette_(song)</title>
<path style="fill:none;stroke:blue;" d="M962,-436C1020,-436 1112,-436 1187,-436"/>
<polygon style="fill:blue;stroke:blue;" points="1187,-439.5 1197,-436 1187,-432.5 1187,-439.5"/>
<text text-anchor="middle" x="1106" y="-439.5" style="font-family:Times New Roman;font-size:10.00px;">rdfs:seeAlso</text>
</g>
<!-- http://www.nperezguitars.com -->
<g id="node17" class="node"><title>http://www.nperezguitars.com</title>
<a xlink:href="http://www.nperezguitars.com" xlink:title="http://www.nperezguitars.com">
<polygon style="fill:none;stroke:black;" points="2063,-227.5 1907,-227.5 1907,-206.5 2063,-206.5 2063,-227.5"/>
<text text-anchor="middle" x="1985" y="-214.5" style="font-family:Times New Roman;font-size:10.00px;fill:blue;">http://www.nperezguitars.com</text>
</a>
</g>
<!-- ex:Nick_Perez -->
<g id="node18" class="node"><title>ex:Nick_Perez</title>
<a xlink:href="ex:Nick_Perez" xlink:title="foaf:Personprov:Personprov:AgentGuitar maker, Guitarist:\nex:Nick_Perez">
<polygon style="fill:none;stroke:black;" points="1823,-209 1533,-209 1533,-175 1823,-175 1823,-209"/>
<text text-anchor="middle" x="1678" y="-196" style="font-family:Times New Roman;font-size:10.00px;fill:blue;">foaf:Personprov:Personprov:AgentGuitar maker, Guitarist:</text>
<text text-anchor="middle" x="1678" y="-183" style="font-family:Times New Roman;font-size:10.00px;fill:blue;">ex:Nick_Perez</text>
</a>
</g>
<!-- ex:Nick_Perez&#45;&gt;http://www.nperezguitars.com -->
<g id="edge16" class="edge"><title>ex:Nick_Perez&#45;&gt;http://www.nperezguitars.com</title>
<path style="fill:none;stroke:blue;" d="M1824,-204C1848,-206 1873,-207 1896,-209"/>
<polygon style="fill:blue;stroke:blue;" points="1895.7,-212.488 1906,-210 1896.4,-205.522 1895.7,-212.488"/>
<text text-anchor="middle" x="1865" y="-214.5" style="font-family:Times New Roman;font-size:10.00px;">rdfs:seeAlso</text>
</g>
<!-- &quot;Nick Perez&quot; -->
<g id="node21" class="node"><title>&quot;Nick Perez&quot;</title>
<text text-anchor="middle" x="1985" y="-164.5" style="font-family:Times New Roman;font-size:10.00px;">&quot;Nick Perez&quot;</text>
</g>
<!-- ex:Nick_Perez&#45;&gt;&quot;Nick Perez&quot; -->
<g id="edge18" class="edge"><title>ex:Nick_Perez&#45;&gt;&quot;Nick Perez&quot;</title>
<path style="fill:none;stroke:blue;" d="M1824,-180C1865,-177 1907,-174 1938,-171"/>
<polygon style="fill:blue;stroke:blue;" points="1938.4,-174.478 1948,-170 1937.7,-167.512 1938.4,-174.478"/>
<text text-anchor="middle" x="1865" y="-184.5" style="font-family:Times New Roman;font-size:10.00px;">foaf:name</text>
</g>
<!-- ex:Luthier -->
<g id="node24" class="node"><title>ex:Luthier</title>
<a xlink:href="ex:Luthier" xlink:title="rdfs:Class, prov:Role:\nGuitar maker">
<polygon style="fill:none;stroke:black;" points="1735,-101 1621,-101 1621,-67 1735,-67 1735,-101"/>
<text text-anchor="middle" x="1678" y="-88" style="font-family:Times New Roman;font-size:10.00px;fill:blue;">rdfs:Class, prov:Role:</text>
<text text-anchor="middle" x="1678" y="-75" style="font-family:Times New Roman;font-size:10.00px;fill:blue;">Guitar maker</text>
</a>
</g>
<!-- http://carolanguitar.com/2014/08/11/dread/ -->
<g id="node26" class="node"><title>http://carolanguitar.com/2014/08/11/dread/</title>
<a xlink:href="http://carolanguitar.com/2014/08/11/dread/" xlink:title="http://carolanguitar.com/2014/08/11/dread/">
<polygon style="fill:none;stroke:black;" points="1789,-45.5 1567,-45.5 1567,-24.5 1789,-24.5 1789,-45.5"/>
<text text-anchor="middle" x="1678" y="-32.5" style="font-family:Times New Roman;font-size:10.00px;fill:blue;">http://carolanguitar.com/2014/08/11/dread/</text>
</a>
</g>
<!-- ex:Steve_Benford -->
<g id="node27" class="node"><title>ex:Steve_Benford</title>
<a xlink:href="ex:Steve_Benford" xlink:title="ex:Steve_Benford">
<polygon style="fill:none;stroke:black;" points="1417,-45.5 1207,-45.5 1207,-24.5 1417,-24.5 1417,-45.5"/>
<text text-anchor="middle" x="1312" y="-32.5" style="font-family:Times New Roman;font-size:10.00px;fill:blue;">ex:Steve_Benford</text>
</a>
</g>
<!-- ex:Dreadnought_Guitar -->
<g id="node28" class="node"><title>ex:Dreadnought_Guitar</title>
<a xlink:href="ex:Dreadnought_Guitar" xlink:title="ex:Dreadnought_Guitar">
<polygon style="fill:none;stroke:black;" points="1796,-143.5 1560,-143.5 1560,-122.5 1796,-122.5 1796,-143.5"/>
<text text-anchor="middle" x="1678" y="-130.5" style="font-family:Times New Roman;font-size:10.00px;fill:blue;">ex:Dreadnought_Guitar</text>
</a>
</g>
<!-- ex:Reclaimed_Mahogany_pece -->
<g id="node29" class="node"><title>ex:Reclaimed_Mahogany_pece</title>
<a xlink:href="ex:Reclaimed_Mahogany_pece" xlink:title="ex:Reclaimed_Mahogany_pece">
<polygon style="fill:none;stroke:black;" points="1447,-284.5 1177,-284.5 1177,-263.5 1447,-263.5 1447,-284.5"/>
<text text-anchor="middle" x="1312" y="-271.5" style="font-family:Times New Roman;font-size:10.00px;fill:blue;">ex:Reclaimed_Mahogany_pece</text>
</a>
</g>
<!-- A1 -->
<g id="node30" class="node"><title>A1</title>
<polygon style="fill:none;stroke:black;" points="1360,-101 1264,-101 1264,-67 1360,-67 1360,-101"/>
<text text-anchor="middle" x="1312" y="-88" style="font-family:Times New Roman;font-size:10.00px;">prov:Association:</text>
<text text-anchor="middle" x="1312" y="-75" style="font-family:Times New Roman;font-size:10.00px;"> </text>
</g>
<!-- A1&#45;&gt;ex:Nick_Perez -->
<g id="edge28" class="edge"><title>A1&#45;&gt;ex:Nick_Perez</title>
<path style="fill:none;stroke:blue;" d="M1361,-85C1388,-87 1423,-94 1448,-112 1456,-118 1452,-125 1459,-130 1484,-150 1514,-163 1545,-172"/>
<polygon style="fill:blue;stroke:blue;" points="1544.42,-175.479 1555,-175 1546.43,-168.774 1544.42,-175.479"/>
<text text-anchor="middle" x="1490" y="-168.5" style="font-family:Times New Roman;font-size:10.00px;">prov:agent</text>
</g>
<!-- A1&#45;&gt;ex:Luthier -->
<g id="edge26" class="edge"><title>A1&#45;&gt;ex:Luthier</title>
<path style="fill:none;stroke:blue;" d="M1361,-84C1425,-84 1538,-84 1611,-84"/>
<polygon style="fill:blue;stroke:blue;" points="1611,-87.5001 1621,-84 1611,-80.5001 1611,-87.5001"/>
<text text-anchor="middle" x="1490" y="-88.5" style="font-family:Times New Roman;font-size:10.00px;">prov:hadRole</text>
</g>
<!-- A1&#45;&gt;http://carolanguitar.com/2014/08/11/dread/ -->
<g id="edge22" class="edge"><title>A1&#45;&gt;http://carolanguitar.com/2014/08/11/dread/</title>
<path style="fill:none;stroke:blue;" d="M1361,-77C1419,-69 1520,-56 1592,-46"/>
<polygon style="fill:blue;stroke:blue;" points="1592.4,-49.4778 1602,-45 1591.7,-42.5125 1592.4,-49.4778"/>
<text text-anchor="middle" x="1490" y="-69.5" style="font-family:Times New Roman;font-size:10.00px;">rdfs:seeAlso</text>
</g>
<!-- A1&#45;&gt;ex:Dreadnought_Guitar -->
<g id="edge24" class="edge"><title>A1&#45;&gt;ex:Dreadnought_Guitar</title>
<path style="fill:none;stroke:blue;" d="M1361,-91C1419,-99 1520,-112 1592,-122"/>
<polygon style="fill:blue;stroke:blue;" points="1591.7,-125.488 1602,-123 1592.4,-118.522 1591.7,-125.488"/>
<text text-anchor="middle" x="1490" y="-116.5" style="font-family:Times New Roman;font-size:10.00px;">prov:hadPlan</text>
</g>
<!-- ex:Carolan_Guitar_production&#45;&gt;ex:Spruce_piece -->
<g id="edge32" class="edge"><title>ex:Carolan_Guitar_production&#45;&gt;ex:Spruce_piece</title>
<path style="fill:none;stroke:blue;" d="M1036,-158C1039,-158 1043,-157 1047,-157 1097,-152 1153,-147 1200,-143"/>
<polygon style="fill:blue;stroke:blue;" points="1200.4,-146.478 1210,-142 1199.7,-139.512 1200.4,-146.478"/>
<text text-anchor="middle" x="1106" y="-161.5" style="font-family:Times New Roman;font-size:10.00px;">prov:used</text>
</g>
<!-- ex:Carolan_Guitar_production&#45;&gt;ex:Nick_Perez -->
<g id="edge40" class="edge"><title>ex:Carolan_Guitar_production&#45;&gt;ex:Nick_Perez</title>
<path style="fill:none;stroke:blue;" d="M1033,-192C1038,-192 1042,-193 1047,-193 1209,-205 1394,-203 1522,-199"/>
<polygon style="fill:blue;stroke:blue;" points="1522,-202.5 1532,-199 1522,-195.5 1522,-202.5"/>
<text text-anchor="middle" x="1312" y="-208.5" style="font-family:Times New Roman;font-size:10.00px;">prov:wasAssociatedWith</text>
</g>
<!-- ex:Carolan_Guitar_production&#45;&gt;ex:Steve_Benford -->
<g id="edge38" class="edge"><title>ex:Carolan_Guitar_production&#45;&gt;ex:Steve_Benford</title>
<path style="fill:none;stroke:blue;" d="M927,-158C955,-139 1003,-109 1047,-90 1102,-68 1118,-69 1176,-56 1193,-53 1212,-49 1229,-47"/>
<polygon style="fill:blue;stroke:blue;" points="1229.88,-50.3933 1239,-45 1228.51,-43.5292 1229.88,-50.3933"/>
<text text-anchor="middle" x="1106" y="-94.5" style="font-family:Times New Roman;font-size:10.00px;">prov:wasAssociatedWith</text>
</g>
<!-- ex:Carolan_Guitar_production&#45;&gt;ex:Reclaimed_Mahogany_pece -->
<g id="edge36" class="edge"><title>ex:Carolan_Guitar_production&#45;&gt;ex:Reclaimed_Mahogany_pece</title>
<path style="fill:none;stroke:blue;" d="M1007,-192C1018,-197 1028,-203 1036,-211 1048,-223 1035,-236 1047,-246 1104,-293 1192,-292 1251,-285"/>
<polygon style="fill:blue;stroke:blue;" points="1251.4,-288.478 1261,-284 1250.7,-281.512 1251.4,-288.478"/>
<text text-anchor="middle" x="1106" y="-293.5" style="font-family:Times New Roman;font-size:10.00px;">prov:used</text>
</g>
<!-- ex:Carolan_Guitar_production&#45;&gt;A1 -->
<g id="edge30" class="edge"><title>ex:Carolan_Guitar_production&#45;&gt;A1</title>
<path style="fill:none;stroke:blue;" d="M952,-158C980,-149 1015,-138 1047,-130 1117,-114 1199,-101 1253,-93"/>
<polygon style="fill:blue;stroke:blue;" points="1253.88,-96.3933 1263,-91 1252.51,-89.5292 1253.88,-96.3933"/>
<text text-anchor="middle" x="1106" y="-134.5" style="font-family:Times New Roman;font-size:10.00px;">prov:qualifiedAsscoiation</text>
</g>
<!-- ex:Flamed_Maple_piece -->
<g id="node39" class="node"><title>ex:Flamed_Maple_piece</title>
<a xlink:href="ex:Flamed_Maple_piece" xlink:title="ex:Flamed_Maple_piece">
<polygon style="fill:none;stroke:black;" points="1431,-185.5 1193,-185.5 1193,-164.5 1431,-164.5 1431,-185.5"/>
<text text-anchor="middle" x="1312" y="-172.5" style="font-family:Times New Roman;font-size:10.00px;fill:blue;">ex:Flamed_Maple_piece</text>
</a>
</g>
<!-- ex:Carolan_Guitar_production&#45;&gt;ex:Flamed_Maple_piece -->
<g id="edge34" class="edge"><title>ex:Carolan_Guitar_production&#45;&gt;ex:Flamed_Maple_piece</title>
<path style="fill:none;stroke:blue;" d="M1036,-175C1083,-175 1135,-175 1182,-175"/>
<polygon style="fill:blue;stroke:blue;" points="1182,-178.5 1192,-175 1182,-171.5 1182,-178.5"/>
<text text-anchor="middle" x="1106" y="-179.5" style="font-family:Times New Roman;font-size:10.00px;">prov:used</text>
</g>
</g>
</svg>
